STARTFONT 2.1
COMMENT
COMMENT Converted from OpenType font "comic2.ttf" by "otf2bdf 3.0".
COMMENT
FONT -FreeType-Comic Sans MS-Medium-R-Normal--25-180-100-100-P-132-ISO10646-1
SIZE 18 100 100
FONTBOUNDINGBOX 32 35 -2 -7
STARTPROPERTIES 19
FOUNDRY "FreeType"
FAMILY_NAME "Comic Sans MS"
WEIGHT_NAME "Medium"
SLANT "R"
SETWIDTH_NAME "Normal"
ADD_STYLE_NAME ""
PIXEL_SIZE 25
POINT_SIZE 180
RESOLUTION_X 100
RESOLUTION_Y 100
SPACING "P"
AVERAGE_WIDTH 132
CHARSET_REGISTRY "ISO10646"
CHARSET_ENCODING "1"
FONT_ASCENT 27
FONT_DESCENT 7
COPYRIGHT "Copyright (c) 1995 Microsoft Corporation. All rights reserved."
_OTF_FONTFILE "comic2.ttf"
_OTF_PSNAME "ComicSansMS"
ENDPROPERTIES
CHARS 575
STARTCHAR 0020
ENCODING 32
SWIDTH 280 0
DWIDTH 7 0
BBX 0 0 0 0
BITMAP
ENDCHAR
STARTCHAR 0021
ENCODING 33
SWIDTH 240 0
DWIDTH 6 0
BBX 2 21 2 -1
BITMAP
C0
C0
C0
C0
C0
C0
C0
C0
C0
C0
C0
C0
C0
C0
C0
C0
00
00
80
C0
C0
ENDCHAR
STARTCHAR 0022
ENCODING 34
SWIDTH 440 0
DWIDTH 11 0
BBX 7 8 1 11
BITMAP
46
E6
E6
E6
E6
E6
E6
66
ENDCHAR
STARTCHAR 0023
ENCODING 35
SWIDTH 840 0
DWIDTH 21 0
BBX 20 19 1 0
BITMAP
018180
038180
038180
030380
030300
7FFFF0
7FFFF0
060600
0E0600
0E0600
0C0E00
0C0C00
FFFFC0
FFFFE0
181800
381800
303800
303800
303000
ENDCHAR
STARTCHAR 0024
ENCODING 36
SWIDTH 680 0
DWIDTH 17 0
BBX 14 26 1 -4
BITMAP
0300
0300
0300
07E0
0FF8
1F38
3B00
7300
7300
7300
7300
3B00
3FE0
0FF0
0338
031C
031C
031C
C31C
F338
7FF0
3FC0
0300
0300
0300
0300
ENDCHAR
STARTCHAR 0025
ENCODING 37
SWIDTH 840 0
DWIDTH 21 0
BBX 18 20 2 0
BITMAP
001800
381800
7E3800
C63000
C67000
C66000
FE6000
7CC000
00C000
018000
018000
038000
031F00
073F80
063180
0E30C0
0C71C0
1C3180
183F80
181E00
ENDCHAR
STARTCHAR 0026
ENCODING 38
SWIDTH 640 0
DWIDTH 16 0
BBX 14 20 1 -1
BITMAP
01C0
03E0
0660
0660
06E0
06C0
07C0
0700
1F00
3D88
71CC
60DC
C0F8
C078
C038
C078
70F8
7FDC
1F0C
0004
ENDCHAR
STARTCHAR 0027
ENCODING 39
SWIDTH 400 0
DWIDTH 10 0
BBX 3 6 3 13
BITMAP
60
E0
E0
60
60
60
ENDCHAR
STARTCHAR 0028
ENCODING 40
SWIDTH 360 0
DWIDTH 9 0
BBX 7 25 1 -5
BITMAP
06
0E
1E
1C
38
30
70
70
60
60
E0
E0
E0
E0
E0
60
60
60
70
70
30
38
1C
0E
06
ENDCHAR
STARTCHAR 0029
ENCODING 41
SWIDTH 360 0
DWIDTH 9 0
BBX 7 25 1 -5
BITMAP
40
F0
70
38
1C
0C
0C
0E
06
06
06
06
06
06
06
06
06
06
0E
0C
1C
1C
38
70
60
ENDCHAR
STARTCHAR 002A
ENCODING 42
SWIDTH 520 0
DWIDTH 13 0
BBX 11 10 1 10
BITMAP
0C00
0C00
EFE0
FFE0
7FC0
1E00
3F00
7380
7380
6180
ENDCHAR
STARTCHAR 002B
ENCODING 43
SWIDTH 480 0
DWIDTH 12 0
BBX 10 10 1 3
BITMAP
0C00
0C00
0C00
0C00
FFC0
FFC0
0C00
0C00
0C00
0C00
ENDCHAR
STARTCHAR 002C
ENCODING 44
SWIDTH 280 0
DWIDTH 7 0
BBX 3 6 3 -4
BITMAP
60
60
E0
C0
C0
80
ENDCHAR
STARTCHAR 002D
ENCODING 45
SWIDTH 400 0
DWIDTH 10 0
BBX 8 2 1 6
BITMAP
FF
FF
ENDCHAR
STARTCHAR 002E
ENCODING 46
SWIDTH 240 0
DWIDTH 6 0
BBX 3 3 2 0
BITMAP
C0
E0
C0
ENDCHAR
STARTCHAR 002F
ENCODING 47
SWIDTH 520 0
DWIDTH 13 0
BBX 11 21 1 -1
BITMAP
0060
00E0
00C0
00C0
01C0
0180
0380
0300
0700
0600
0E00
0C00
1C00
1800
3800
3000
7000
6000
E000
E000
C000
ENDCHAR
STARTCHAR 0030
ENCODING 48
SWIDTH 600 0
DWIDTH 15 0
BBX 13 19 1 0
BITMAP
0F80
1FE0
3870
7030
6038
E018
C018
C018
C018
C018
C018
C018
C018
E038
6038
7070
38F0
3FE0
0F80
ENDCHAR
STARTCHAR 0031
ENCODING 49
SWIDTH 440 0
DWIDTH 11 0
BBX 8 19 2 0
BITMAP
0C
3C
7C
FC
DC
1C
1C
1C
18
18
18
18
18
18
18
18
18
FF
FF
ENDCHAR
STARTCHAR 0032
ENCODING 50
SWIDTH 600 0
DWIDTH 15 0
BBX 11 19 2 0
BITMAP
1F00
3FC0
F0E0
C060
0060
00E0
00E0
01E0
03C0
0F80
1F00
3C00
7800
7000
E000
E000
C000
FFE0
FFE0
ENDCHAR
STARTCHAR 0033
ENCODING 51
SWIDTH 600 0
DWIDTH 15 0
BBX 11 19 2 0
BITMAP
1F00
7F80
F1C0
40E0
0060
00E0
01E0
0FC0
1FC0
0F00
01C0
00E0
0060
0060
0060
C0E0
E1C0
7FC0
1F00
ENDCHAR
STARTCHAR 0034
ENCODING 52
SWIDTH 600 0
DWIDTH 15 0
BBX 13 19 1 0
BITMAP
00E0
01E0
03E0
03E0
07E0
0EE0
0EE0
1CE0
38E0
38E0
70E0
F0E0
FFF8
FFF8
00E0
00E0
00E0
00E0
0060
ENDCHAR
STARTCHAR 0035
ENCODING 53
SWIDTH 600 0
DWIDTH 15 0
BBX 12 19 2 0
BITMAP
FFE0
FFE0
E000
E000
E000
CF80
FFC0
F0E0
E070
C070
0030
0030
0030
0070
0070
C0E0
E1C0
FF80
3F00
ENDCHAR
STARTCHAR 0036
ENCODING 54
SWIDTH 600 0
DWIDTH 15 0
BBX 13 19 1 0
BITMAP
0180
0380
0700
0E00
1C00
3800
3000
7F80
7FE0
7070
E030
E030
E038
E030
6030
7070
78E0
3FE0
0F80
ENDCHAR
STARTCHAR 0037
ENCODING 55
SWIDTH 600 0
DWIDTH 15 0
BBX 14 19 1 0
BITMAP
FFFC
FFFC
0078
0070
00E0
00C0
01C0
0180
0380
0300
0700
0700
0600
0E00
0C00
1C00
1C00
1800
1800
ENDCHAR
STARTCHAR 0038
ENCODING 56
SWIDTH 600 0
DWIDTH 15 0
BBX 13 19 1 0
BITMAP
0F80
1FE0
38E0
7070
7070
6070
7070
38E0
3FC0
1FC0
38F0
7070
6038
E038
E038
6038
7070
3FE0
1F80
ENDCHAR
STARTCHAR 0039
ENCODING 57
SWIDTH 600 0
DWIDTH 15 0
BBX 13 20 1 -1
BITMAP
0F80
3FE0
38F0
7070
6038
E038
E018
E018
6018
6038
78F8
3FF0
0FB0
0070
00E0
00C0
03C0
0F00
3E00
3800
ENDCHAR
STARTCHAR 003A
ENCODING 58
SWIDTH 280 0
DWIDTH 7 0
BBX 3 12 2 1
BITMAP
E0
E0
60
00
00
00
00
00
00
60
E0
60
ENDCHAR
STARTCHAR 003B
ENCODING 59
SWIDTH 280 0
DWIDTH 7 0
BBX 4 15 1 -2
BITMAP
30
70
30
00
00
00
00
00
00
00
30
70
E0
C0
C0
ENDCHAR
STARTCHAR 003C
ENCODING 60
SWIDTH 400 0
DWIDTH 10 0
BBX 8 11 0 2
BITMAP
02
07
0E
1C
78
F0
78
3C
1C
0E
06
ENDCHAR
STARTCHAR 003D
ENCODING 61
SWIDTH 520 0
DWIDTH 13 0
BBX 10 8 1 3
BITMAP
FFC0
FFC0
0000
0000
0000
0000
FF80
FF80
ENDCHAR
STARTCHAR 003E
ENCODING 62
SWIDTH 400 0
DWIDTH 10 0
BBX 8 11 1 2
BITMAP
C0
60
30
0C
06
0F
1E
3C
78
E0
C0
ENDCHAR
STARTCHAR 003F
ENCODING 63
SWIDTH 520 0
DWIDTH 13 0
BBX 11 19 1 -1
BITMAP
3C00
FF00
E380
C1C0
00C0
00C0
00E0
00E0
01E0
03E0
07C0
1FC0
1F00
3C00
1000
0000
3000
7000
3000
ENDCHAR
STARTCHAR 0040
ENCODING 64
SWIDTH 920 0
DWIDTH 23 0
BBX 20 20 1 0
BITMAP
01FC00
07FF00
0F07C0
1C01E0
3800E0
70F070
71F070
63C030
E71830
E71830
E63830
E73870
63FFE0
61CFC0
700000
380000
1C0000
0F0380
07FF80
00FE00
ENDCHAR
STARTCHAR 0041
ENCODING 65
SWIDTH 720 0
DWIDTH 18 0
BBX 14 19 2 0
BITMAP
0040
00E0
01E0
01E0
03E0
0770
0770
0E70
0E30
1C30
1CF8
7FF8
7F18
7018
7018
E01C
E01C
C00C
C00C
ENDCHAR
STARTCHAR 0042
ENCODING 66
SWIDTH 640 0
DWIDTH 16 0
BBX 13 20 2 -1
BITMAP
7E00
7F80
61C0
60E0
6060
6070
6060
6060
60E0
61C0
FF80
FFE0
E1F0
E078
E038
E038
E070
E3E0
FFC0
7E00
ENDCHAR
STARTCHAR 0043
ENCODING 67
SWIDTH 600 0
DWIDTH 15 0
BBX 14 19 1 0
BITMAP
01F8
03FC
071C
0E08
1C00
3800
3800
7000
6000
E000
E000
E000
E000
E000
E018
6038
70F0
3FE0
0F80
ENDCHAR
STARTCHAR 0044
ENCODING 68
SWIDTH 720 0
DWIDTH 18 0
BBX 15 19 2 0
BITMAP
6000
F800
EF00
E3C0
E0E0
E070
E038
E01C
E00C
E00E
E00E
E00E
E00E
E00C
E01C
E038
E078
7FF0
1F80
ENDCHAR
STARTCHAR 0045
ENCODING 69
SWIDTH 640 0
DWIDTH 16 0
BBX 13 19 2 0
BITMAP
FFF0
FFF8
E000
E000
E000
E000
E000
E000
C3F0
FFF0
FC00
C000
C000
C000
C000
C000
C000
FFF0
3FF0
ENDCHAR
STARTCHAR 0046
ENCODING 70
SWIDTH 600 0
DWIDTH 15 0
BBX 13 19 2 0
BITMAP
FFE0
FFF8
E030
E000
E000
E000
E000
EFE0
FFE0
F000
E000
E000
E000
E000
E000
E000
E000
E000
C000
ENDCHAR
STARTCHAR 0047
ENCODING 71
SWIDTH 680 0
DWIDTH 17 0
BBX 16 19 1 0
BITMAP
01E0
07F8
0E1C
1C00
3800
3800
7000
7000
6000
E1FE
E7FF
C70E
C00E
C01C
E01C
E038
70F0
3FE0
1F80
ENDCHAR
STARTCHAR 0048
ENCODING 72
SWIDTH 760 0
DWIDTH 19 0
BBX 16 19 2 0
BITMAP
6003
E003
E007
E007
E007
E007
E007
E007
E006
E0FE
FFFE
FF06
E006
E006
E006
C006
C006
C006
C006
ENDCHAR
STARTCHAR 0049
ENCODING 73
SWIDTH 560 0
DWIDTH 14 0
BBX 12 19 1 0
BITMAP
FFE0
FFF0
0E00
0E00
0E00
0E00
0E00
0C00
0C00
0C00
0C00
0C00
0E00
0E00
0E00
0E00
0E00
FFE0
FFE0
ENDCHAR
STARTCHAR 004A
ENCODING 74
SWIDTH 680 0
DWIDTH 17 0
BBX 15 19 1 0
BITMAP
1FFC
1FFE
00E0
00E0
00E0
00E0
00E0
00E0
00E0
00E0
00C0
00C0
00C0
C0C0
E0C0
E1C0
7980
3F80
0F00
ENDCHAR
STARTCHAR 004B
ENCODING 75
SWIDTH 600 0
DWIDTH 15 0
BBX 12 19 3 0
BITMAP
C060
C0E0
C1E0
C1C0
C380
C700
CE00
DC00
F800
F000
F000
F800
DC00
CE00
C700
C3C0
C1E0
C0F0
C070
ENDCHAR
STARTCHAR 004C
ENCODING 76
SWIDTH 560 0
DWIDTH 14 0
BBX 12 19 1 0
BITMAP
6000
6000
6000
6000
6000
6000
6000
6000
6000
6000
6000
6000
E000
E000
E000
E000
E000
FFF0
7FF0
ENDCHAR
STARTCHAR 004D
ENCODING 77
SWIDTH 880 0
DWIDTH 22 0
BBX 20 20 1 -1
BITMAP
060300
0E0380
0E0780
1E0780
1F0780
1F0780
1F0F80
1B0FC0
1B0DC0
3B8CC0
3B9CC0
3398C0
7198E0
71F8E0
71F8E0
61F060
60F070
E0F070
E0E070
606030
ENDCHAR
STARTCHAR 004E
ENCODING 78
SWIDTH 800 0
DWIDTH 20 0
BBX 18 19 1 0
BITMAP
600180
F00380
700180
7801C0
7C01C0
6E01C0
6E01C0
6701C0
6381C0
61C1C0
60E1C0
60E1C0
6071C0
6039C0
601DC0
600FC0
6007C0
6003C0
600180
ENDCHAR
STARTCHAR 004F
ENCODING 79
SWIDTH 800 0
DWIDTH 20 0
BBX 18 19 1 0
BITMAP
01FC00
07FE00
0F0700
1C0380
380180
3801C0
7001C0
7001C0
6001C0
6001C0
E001C0
E00180
E00380
600380
700700
380E00
3C1E00
0FF800
03F000
ENDCHAR
STARTCHAR 0050
ENCODING 80
SWIDTH 520 0
DWIDTH 13 0
BBX 11 19 1 0
BITMAP
7E00
7F80
61C0
60E0
6060
6060
6060
6060
E0E0
E3C0
FF80
FE00
E000
C000
C000
C000
C000
C000
C000
ENDCHAR
STARTCHAR 0051
ENCODING 81
SWIDTH 880 0
DWIDTH 22 0
BBX 20 24 1 -5
BITMAP
01FC00
07FF00
0F0780
3C01C0
3801C0
7000E0
6000E0
E00060
E00060
C00070
C00070
E00070
E04060
6060E0
7070E0
383BC0
1E1F80
0FFF00
03FF80
0003C0
0001E0
0000F0
000070
000030
ENDCHAR
STARTCHAR 0052
ENCODING 82
SWIDTH 640 0
DWIDTH 16 0
BBX 14 19 1 0
BITMAP
7E00
7F80
63C0
60E0
6070
6038
6038
6018
6038
6078
E0F0
FFC0
FF00
FFC0
63E0
60F0
6078
601C
600C
ENDCHAR
STARTCHAR 0053
ENCODING 83
SWIDTH 680 0
DWIDTH 17 0
BBX 14 20 2 -1
BITMAP
03E0
0FF8
1C38
3800
7000
7000
7000
7800
3FE0
0FF0
0078
001C
001C
000C
000C
C01C
C038
E078
7FE0
1F80
ENDCHAR
STARTCHAR 0054
ENCODING 84
SWIDTH 680 0
DWIDTH 17 0
BBX 17 19 1 0
BITMAP
FFFF00
7FFF80
018000
018000
018000
018000
018000
018000
01C000
01C000
01C000
01C000
01C000
01C000
01C000
01C000
01C000
01C000
00C000
ENDCHAR
STARTCHAR 0055
ENCODING 85
SWIDTH 720 0
DWIDTH 18 0
BBX 15 19 2 0
BITMAP
C006
C00E
C00E
C00E
C00E
C00E
C00E
C00E
C00E
C00E
C00E
E00C
E00C
E01C
601C
7038
3870
1FF0
0FC0
ENDCHAR
STARTCHAR 0056
ENCODING 86
SWIDTH 640 0
DWIDTH 16 0
BBX 14 19 2 0
BITMAP
C00C
C01C
E01C
E038
E038
6030
7070
7070
3060
30E0
38E0
38C0
19C0
1980
1F80
1F80
0F00
0F00
0700
ENDCHAR
STARTCHAR 0057
ENCODING 87
SWIDTH 1040 0
DWIDTH 26 0
BBX 23 19 2 0
BITMAP
C01806
E03806
E0380E
E0780E
607C0C
707C0C
70FC1C
30EC18
30EC38
39CC38
19CC30
19CE70
1B8E60
1F8660
1F06E0
0F07C0
0F07C0
0E0780
0E0380
ENDCHAR
STARTCHAR 0058
ENCODING 88
SWIDTH 720 0
DWIDTH 18 0
BBX 16 19 1 0
BITMAP
6003
7007
780E
380E
1C1C
0E38
0770
07F0
03E0
01C0
03E0
0770
0E70
1E38
3C1C
781C
700E
E007
C003
ENDCHAR
STARTCHAR 0059
ENCODING 89
SWIDTH 640 0
DWIDTH 16 0
BBX 15 19 0 -1
BITMAP
6006
E00E
700E
381C
3818
1C38
0C38
0E70
0670
0760
03E0
01C0
01C0
0180
0380
0300
0700
0600
0600
ENDCHAR
STARTCHAR 005A
ENCODING 90
SWIDTH 680 0
DWIDTH 17 0
BBX 16 19 1 0
BITMAP
FFFE
FFFF
001E
0038
0070
00E0
01C0
0380
0380
0700
0E00
0E00
1C00
3800
3800
7000
E000
FFFF
FFFF
ENDCHAR
STARTCHAR 005B
ENCODING 91
SWIDTH 360 0
DWIDTH 9 0
BBX 6 25 2 -5
BITMAP
FC
FC
E0
E0
E0
E0
E0
E0
E0
E0
E0
E0
E0
E0
C0
C0
C0
C0
C0
C0
C0
C0
C0
FC
FC
ENDCHAR
STARTCHAR 005C
ENCODING 92
SWIDTH 560 0
DWIDTH 14 0
BBX 10 20 2 -2
BITMAP
C000
E000
6000
7000
3000
3800
1800
1C00
0C00
0E00
0600
0600
0700
0300
0380
0180
01C0
01C0
00C0
00C0
ENDCHAR
STARTCHAR 005D
ENCODING 93
SWIDTH 360 0
DWIDTH 9 0
BBX 7 25 2 -5
BITMAP
7C
7C
0C
0C
0C
0C
0C
0C
0C
0C
0C
0C
0C
0C
0C
0C
0C
0C
0C
0C
0E
0E
0E
FE
FC
ENDCHAR
STARTCHAR 005E
ENCODING 94
SWIDTH 600 0
DWIDTH 15 0
BBX 9 6 3 14
BITMAP
1800
3E00
7F00
7780
E380
C180
ENDCHAR
STARTCHAR 005F
ENCODING 95
SWIDTH 640 0
DWIDTH 16 0
BBX 16 2 0 -4
BITMAP
FFFF
FFFF
ENDCHAR
STARTCHAR 0060
ENCODING 96
SWIDTH 560 0
DWIDTH 14 0
BBX 5 6 2 14
BITMAP
C0
E0
70
30
38
18
ENDCHAR
STARTCHAR 0061
ENCODING 97
SWIDTH 520 0
DWIDTH 13 0
BBX 11 13 1 0
BITMAP
0F80
3FC0
78C0
60C0
E0C0
C0C0
C0C0
C0C0
C0C0
C0C0
E1E0
7FE0
3E60
ENDCHAR
STARTCHAR 0062
ENCODING 98
SWIDTH 600 0
DWIDTH 15 0
BBX 12 20 2 0
BITMAP
C000
C000
C000
C000
C000
C000
C000
CF00
FFC0
F0C0
E060
C060
C070
C070
C070
C060
C0E0
E1C0
FF80
FF00
ENDCHAR
STARTCHAR 0063
ENCODING 99
SWIDTH 520 0
DWIDTH 13 0
BBX 11 13 1 0
BITMAP
0F80
1FC0
38C0
7000
6000
6000
E000
E000
E000
6000
70E0
3FE0
0F80
ENDCHAR
STARTCHAR 0064
ENCODING 100
SWIDTH 600 0
DWIDTH 15 0
BBX 12 20 1 0
BITMAP
0030
0030
0030
0030
0030
0030
0030
0FB0
3FF0
70F0
6070
6030
E030
C030
C030
E030
6070
70F0
3FF0
0FB0
ENDCHAR
STARTCHAR 0065
ENCODING 101
SWIDTH 560 0
DWIDTH 14 0
BBX 12 13 1 0
BITMAP
0F80
3FC0
70E0
60E0
E1E0
C780
DE00
F800
E000
E030
7070
3FE0
1F80
ENDCHAR
STARTCHAR 0066
ENCODING 102
SWIDTH 520 0
DWIDTH 13 0
BBX 10 21 1 -1
BITMAP
03C0
07C0
0E00
0C00
0C00
1C00
1C00
FFC0
FFC0
1800
1800
1800
1800
1800
1800
1800
1800
1800
1800
1800
1800
ENDCHAR
STARTCHAR 0067
ENCODING 103
SWIDTH 520 0
DWIDTH 13 0
BBX 11 20 1 -7
BITMAP
0F80
3FE0
7860
6060
E060
C060
C0E0
C0E0
C0E0
C1E0
E3E0
7FC0
3CC0
00C0
00C0
00C0
01C0
0380
FF80
FE00
ENDCHAR
STARTCHAR 0068
ENCODING 104
SWIDTH 560 0
DWIDTH 14 0
BBX 11 20 2 0
BITMAP
C000
C000
C000
E000
E000
C000
C000
C780
DFC0
D8C0
F0C0
E0C0
E0C0
C0C0
C0E0
C0E0
C0E0
C0E0
C060
C060
ENDCHAR
STARTCHAR 0069
ENCODING 105
SWIDTH 280 0
DWIDTH 7 0
BBX 3 18 2 0
BITMAP
60
60
00
00
00
60
E0
E0
E0
E0
E0
E0
E0
E0
E0
E0
E0
40
ENDCHAR
STARTCHAR 006A
ENCODING 106
SWIDTH 400 0
DWIDTH 10 0
BBX 8 25 0 -7
BITMAP
0E
0E
00
00
00
06
06
06
06
06
07
07
07
07
07
07
07
07
07
03
C3
E7
E7
7E
3C
ENDCHAR
STARTCHAR 006B
ENCODING 107
SWIDTH 560 0
DWIDTH 14 0
BBX 11 20 2 -1
BITMAP
C000
E000
E000
E000
E000
E0C0
E1E0
E1E0
E3C0
E780
EF00
FE00
FE00
F700
E380
E380
C1C0
C0E0
C060
0040
ENDCHAR
STARTCHAR 006C
ENCODING 108
SWIDTH 280 0
DWIDTH 7 0
BBX 3 20 2 0
BITMAP
60
E0
E0
E0
E0
E0
E0
E0
E0
E0
E0
E0
E0
E0
E0
E0
E0
E0
E0
C0
ENDCHAR
STARTCHAR 006D
ENCODING 109
SWIDTH 760 0
DWIDTH 19 0
BBX 17 13 1 0
BITMAP
639E00
6FBF00
7DF700
79C300
71C300
61C380
61C380
60C380
60C180
E0C180
E0C180
60C180
60C180
ENDCHAR
STARTCHAR 006E
ENCODING 110
SWIDTH 520 0
DWIDTH 13 0
BBX 10 13 2 0
BITMAP
C700
DF80
D980
F1C0
E1C0
E1C0
C1C0
C1C0
C1C0
C0C0
C0C0
C0C0
C0C0
ENDCHAR
STARTCHAR 006F
ENCODING 111
SWIDTH 520 0
DWIDTH 13 0
BBX 11 13 1 0
BITMAP
0F00
3F80
71C0
60C0
E0E0
E060
C060
C060
E0E0
E0C0
71C0
3F80
1F00
ENDCHAR
STARTCHAR 0070
ENCODING 112
SWIDTH 520 0
DWIDTH 13 0
BBX 11 21 1 -7
BITMAP
6000
6780
FFC0
78E0
70E0
6060
6060
6060
6060
6060
60E0
61C0
7FC0
7F00
6000
6000
6000
6000
6000
6000
6000
ENDCHAR
STARTCHAR 0071
ENCODING 113
SWIDTH 520 0
DWIDTH 13 0
BBX 11 20 1 -7
BITMAP
0FC0
3FE0
78E0
70C0
E0C0
C0C0
C0C0
C0C0
C0C0
E0C0
F1C0
7FC0
1FC0
01C0
0180
0180
0180
0180
0180
0180
ENDCHAR
STARTCHAR 0072
ENCODING 114
SWIDTH 480 0
DWIDTH 12 0
BBX 9 13 2 0
BITMAP
C780
DF80
F980
E180
C180
C000
C000
C000
C000
C000
C000
C000
C000
ENDCHAR
STARTCHAR 0073
ENCODING 115
SWIDTH 480 0
DWIDTH 12 0
BBX 10 13 1 0
BITMAP
01C0
1FC0
7CC0
70C0
E0C0
7C00
7F00
0780
01C0
01C0
C1C0
FF80
7E00
ENDCHAR
STARTCHAR 0074
ENCODING 116
SWIDTH 480 0
DWIDTH 12 0
BBX 10 17 1 0
BITMAP
0C00
1C00
1C00
0C00
FFC0
FFC0
0C00
0C00
0C00
0C00
0C00
0C00
0C00
0C00
0C00
0C00
0C00
ENDCHAR
STARTCHAR 0075
ENCODING 117
SWIDTH 520 0
DWIDTH 13 0
BBX 11 13 1 0
BITMAP
6060
60E0
E0E0
E0E0
E0E0
E0E0
E0E0
E0E0
60E0
60E0
60E0
7FE0
1FE0
ENDCHAR
STARTCHAR 0076
ENCODING 118
SWIDTH 480 0
DWIDTH 12 0
BBX 11 13 1 0
BITMAP
C060
C0E0
E0C0
60C0
61C0
7180
3380
3B00
3B00
1F00
1E00
0E00
0C00
ENDCHAR
STARTCHAR 0077
ENCODING 119
SWIDTH 680 0
DWIDTH 17 0
BBX 15 13 1 0
BITMAP
C186
C386
E386
E38E
E7CE
66CC
66CC
6CDC
6CD8
7CD8
3878
3870
3070
ENDCHAR
STARTCHAR 0078
ENCODING 120
SWIDTH 600 0
DWIDTH 15 0
BBX 13 14 1 -1
BITMAP
6018
7038
3870
1CE0
0DC0
0F80
0700
0F80
1F80
39C0
70E0
E070
C070
0030
ENDCHAR
STARTCHAR 0079
ENCODING 121
SWIDTH 520 0
DWIDTH 13 0
BBX 13 20 0 -7
BITMAP
C030
C038
E070
7070
70E0
38E0
38C0
1DC0
1D80
0F80
0F00
0700
0600
0E00
0E00
0C00
1C00
1800
1800
1800
ENDCHAR
STARTCHAR 007A
ENCODING 122
SWIDTH 520 0
DWIDTH 13 0
BBX 11 13 2 0
BITMAP
FFE0
FFC0
01C0
0380
0700
0700
0E00
1C00
1C00
3800
7000
FFC0
FFC0
ENDCHAR
STARTCHAR 007B
ENCODING 123
SWIDTH 360 0
DWIDTH 9 0
BBX 8 25 0 -5
BITMAP
07
1F
18
18
18
38
38
18
18
18
18
78
F0
E0
70
30
38
38
30
38
38
18
1C
0F
07
ENDCHAR
STARTCHAR 007C
ENCODING 124
SWIDTH 440 0
DWIDTH 11 0
BBX 2 25 4 -4
BITMAP
C0
C0
C0
C0
C0
C0
C0
C0
C0
C0
C0
C0
C0
C0
C0
C0
C0
C0
C0
C0
C0
C0
C0
C0
40
ENDCHAR
STARTCHAR 007D
ENCODING 125
SWIDTH 360 0
DWIDTH 9 0
BBX 8 25 0 -5
BITMAP
70
F8
1C
0C
0C
0C
0C
0C
0C
0C
0C
0E
07
07
07
0E
0C
0C
0C
0C
0C
0C
18
F8
F0
ENDCHAR
STARTCHAR 007E
ENCODING 126
SWIDTH 600 0
DWIDTH 15 0
BBX 13 5 1 6
BITMAP
1E18
7E18
E738
C1F0
00E0
ENDCHAR
STARTCHAR 00A0
ENCODING 160
SWIDTH 280 0
DWIDTH 7 0
BBX 0 0 0 0
BITMAP
ENDCHAR
STARTCHAR 00A1
ENCODING 161
SWIDTH 240 0
DWIDTH 6 0
BBX 3 21 1 -1
BITMAP
40
60
60
00
00
40
E0
E0
E0
E0
E0
E0
E0
E0
E0
E0
E0
E0
E0
E0
60
ENDCHAR
STARTCHAR 00A2
ENCODING 162
SWIDTH 640 0
DWIDTH 16 0
BBX 12 21 2 0
BITMAP
0600
0600
0600
0F60
3FE0
76E0
6640
CE00
CE00
CC00
CC00
CC00
CC00
CC20
CC70
6CE0
7FC0
1F80
0C00
0C00
0C00
ENDCHAR
STARTCHAR 00A3
ENCODING 163
SWIDTH 800 0
DWIDTH 20 0
BBX 17 22 1 -2
BITMAP
01F000
07FC00
0F0E00
0C0600
1C0600
180000
180000
180000
180000
FFF800
FFF800
180000
180000
0C0000
0C0000
0C0000
0C0000
1C0180
1C0180
3F8380
3FFF00
307C00
ENDCHAR
STARTCHAR 00A4
ENCODING 164
SWIDTH 600 0
DWIDTH 15 0
BBX 14 13 1 3
BITMAP
6000
E00C
703C
3FF8
3FE0
38E0
30E0
30E0
38C0
7FE0
77F0
E078
C030
ENDCHAR
STARTCHAR 00A5
ENCODING 165
SWIDTH 640 0
DWIDTH 16 0
BBX 12 19 2 0
BITMAP
8030
C030
E030
6060
6060
70E0
30C0
39C0
F9F0
FFF0
0F00
0600
7FE0
3FE0
0600
0600
0600
0600
0600
ENDCHAR
STARTCHAR 00A6
ENCODING 166
SWIDTH 400 0
DWIDTH 10 0
BBX 2 20 4 0
BITMAP
C0
C0
C0
C0
C0
C0
C0
C0
C0
00
00
C0
C0
C0
C0
C0
C0
C0
C0
C0
ENDCHAR
STARTCHAR 00A7
ENCODING 167
SWIDTH 640 0
DWIDTH 16 0
BBX 12 19 1 0
BITMAP
07C0
1FE0
3870
3830
3800
1C00
3F00
73E0
70F0
3030
3C30
0FF0
01E0
4070
E030
6030
7070
3FE0
0FC0
ENDCHAR
STARTCHAR 00A8
ENCODING 168
SWIDTH 560 0
DWIDTH 14 0
BBX 9 2 3 14
BITMAP
C380
C380
ENDCHAR
STARTCHAR 00A9
ENCODING 169
SWIDTH 800 0
DWIDTH 20 0
BBX 18 15 1 5
BITMAP
01F800
0FFE00
1E0700
39E380
73F180
670180
CE01C0
CC11C0
CE3980
C7F180
E3E380
700700
381E00
1FFC00
07F000
ENDCHAR
STARTCHAR 00AA
ENCODING 170
SWIDTH 520 0
DWIDTH 13 0
BBX 10 9 1 10
BITMAP
1F80
7FC0
71C0
E1C0
E3C0
E3C0
66C0
7EC0
3CC0
ENDCHAR
STARTCHAR 00AB
ENCODING 171
SWIDTH 560 0
DWIDTH 14 0
BBX 13 11 0 2
BITMAP
0218
0738
0E70
1CE0
79C0
F380
7BC0
3CE0
1E70
0E38
0618
ENDCHAR
STARTCHAR 00AC
ENCODING 172
SWIDTH 480 0
DWIDTH 12 0
BBX 10 6 1 3
BITMAP
FFC0
FFC0
00C0
00C0
00C0
00C0
ENDCHAR
STARTCHAR 00AD
ENCODING 173
SWIDTH 400 0
DWIDTH 10 0
BBX 8 2 1 6
BITMAP
FF
FF
ENDCHAR
STARTCHAR 00AE
ENCODING 174
SWIDTH 800 0
DWIDTH 20 0
BBX 18 17 1 3
BITMAP
01F800
0FFE00
1E0F00
3BF300
77F980
661980
E639C0
C7F8C0
C7E0C0
CFC1C0
CFE180
ECF180
6C3380
700700
381E00
1FFC00
07E000
ENDCHAR
STARTCHAR 00AF
ENCODING 175
SWIDTH 640 0
DWIDTH 16 0
BBX 16 2 0 21
BITMAP
FFFF
FFFF
ENDCHAR
STARTCHAR 00B0
ENCODING 176
SWIDTH 400 0
DWIDTH 10 0
BBX 8 9 1 12
BITMAP
3C
7E
E3
C3
C1
C3
C7
7E
3C
ENDCHAR
STARTCHAR 00B1
ENCODING 177
SWIDTH 480 0
DWIDTH 12 0
BBX 10 14 1 -1
BITMAP
0C00
0C00
0C00
0C00
FFC0
FFC0
0C00
0C00
0C00
0800
0000
0000
FFC0
FFC0
ENDCHAR
STARTCHAR 00B2
ENCODING 178
SWIDTH 640 0
DWIDTH 16 0
BBX 7 10 5 11
BITMAP
38
FC
CC
84
0C
38
70
C0
FE
FE
ENDCHAR
STARTCHAR 00B3
ENCODING 179
SWIDTH 640 0
DWIDTH 16 0
BBX 7 11 5 10
BITMAP
78
7C
0C
0C
3C
3C
0C
06
0E
FC
F8
ENDCHAR
STARTCHAR 00B4
ENCODING 180
SWIDTH 560 0
DWIDTH 14 0
BBX 5 6 3 14
BITMAP
18
38
70
E0
C0
80
ENDCHAR
STARTCHAR 00B5
ENCODING 181
SWIDTH 520 0
DWIDTH 13 0
BBX 14 18 0 -5
BITMAP
060C
0E0C
0C0C
1C1C
1C1C
1818
1818
1838
3838
3830
3830
3830
3FF0
7FE0
7000
6000
E000
C000
ENDCHAR
STARTCHAR 00B6
ENCODING 182
SWIDTH 680 0
DWIDTH 17 0
BBX 15 21 1 -2
BITMAP
0076
07F6
1FE6
3E66
7866
6066
E066
C066
C066
C06E
E06C
70EC
3FEC
0FCC
00CC
00DC
01D8
01D8
01D8
01B8
01B0
ENDCHAR
STARTCHAR 00B7
ENCODING 183
SWIDTH 240 0
DWIDTH 6 0
BBX 3 3 2 8
BITMAP
C0
E0
C0
ENDCHAR
STARTCHAR 00B8
ENCODING 184
SWIDTH 560 0
DWIDTH 14 0
BBX 7 7 4 -5
BITMAP
30
38
0C
06
CE
7C
38
ENDCHAR
STARTCHAR 00B9
ENCODING 185
SWIDTH 640 0
DWIDTH 16 0
BBX 7 10 5 11
BITMAP
30
70
F0
30
30
30
30
30
FE
FE
ENDCHAR
STARTCHAR 00BA
ENCODING 186
SWIDTH 440 0
DWIDTH 11 0
BBX 11 9 0 11
BITMAP
0F00
3F80
71C0
60C0
E0E0
60C0
71C0
3F80
1F00
ENDCHAR
STARTCHAR 00BB
ENCODING 187
SWIDTH 560 0
DWIDTH 14 0
BBX 13 11 0 2
BITMAP
C300
E380
71C0
38E0
1C70
0F38
1E78
3CE0
79C0
7380
6300
ENDCHAR
STARTCHAR 00BC
ENCODING 188
SWIDTH 640 0
DWIDTH 16 0
BBX 13 25 2 -4
BITMAP
0600
0E00
1E00
0600
0600
0600
0600
0600
1FC0
1FC0
0000
0000
FFF0
FFF8
0000
0300
0700
0F00
1F00
1B00
3300
7FC0
0300
0300
0300
ENDCHAR
STARTCHAR 00BD
ENCODING 189
SWIDTH 640 0
DWIDTH 16 0
BBX 13 26 2 -5
BITMAP
0600
0E00
1E00
0600
0600
0600
0600
0600
1FC0
1FC0
0000
0000
FFF0
FFF8
0000
0F00
1F80
1980
1080
0180
0380
0F00
1C00
1800
1FC0
1FC0
ENDCHAR
STARTCHAR 00BE
ENCODING 190
SWIDTH 640 0
DWIDTH 16 0
BBX 13 24 2 -4
BITMAP
0F00
0F80
0180
0180
0700
0780
0080
00C0
1F80
1F00
0000
FFF0
FFF8
0000
0300
0700
0F00
0F00
1B00
3300
7FC0
0300
0300
0300
ENDCHAR
STARTCHAR 00BF
ENCODING 191
SWIDTH 520 0
DWIDTH 13 0
BBX 11 19 1 -1
BITMAP
0180
0380
0300
0000
0000
0700
0F00
1E00
3C00
7C00
F800
F000
F000
C000
C000
E040
71E0
3FC0
0F00
ENDCHAR
STARTCHAR 00C0
ENCODING 192
SWIDTH 720 0
DWIDTH 18 0
BBX 14 26 2 0
BITMAP
0300
0380
01C0
00E0
0060
0060
0000
0040
00E0
01E0
01E0
03E0
0770
0770
0E70
0E30
1C30
1CF8
7FF8
7F18
7018
7018
E01C
E01C
C00C
C00C
ENDCHAR
STARTCHAR 00C1
ENCODING 193
SWIDTH 720 0
DWIDTH 18 0
BBX 14 25 2 0
BITMAP
001C
003C
0038
0070
00E0
0040
0040
00E0
01E0
01E0
03E0
0770
0770
0E70
0E30
1C30
1CF8
7FF8
7F18
7018
7018
E01C
E01C
C00C
C00C
ENDCHAR
STARTCHAR 00C2
ENCODING 194
SWIDTH 720 0
DWIDTH 18 0
BBX 14 25 2 0
BITMAP
00C0
01E0
03B8
071C
0E0C
0000
0040
00E0
01E0
01E0
03E0
0770
0770
0E70
0E30
1C30
1CF8
7FF8
7F18
7018
7018
E01C
E01C
C00C
C00C
ENDCHAR
STARTCHAR 00C3
ENCODING 195
SWIDTH 720 0
DWIDTH 18 0
BBX 16 25 2 0
BITMAP
0383
07C3
0E66
0C7E
003C
0000
0040
00E0
01E0
01E0
03E0
0770
0770
0E70
0E30
1C30
1CF8
7FF8
7F18
7018
7018
E01C
E01C
C00C
C00C
ENDCHAR
STARTCHAR 00C4
ENCODING 196
SWIDTH 720 0
DWIDTH 18 0
BBX 14 22 2 0
BITMAP
071C
071C
0000
0040
00E0
01E0
01E0
03E0
0770
0770
0E70
0E30
1C30
1CF8
7FF8
7F18
7018
7018
E01C
E01C
C00C
C00C
ENDCHAR
STARTCHAR 00C5
ENCODING 197
SWIDTH 720 0
DWIDTH 18 0
BBX 14 25 2 0
BITMAP
00F0
03F8
030C
030C
030C
03F8
01F0
00E0
01E0
01E0
03E0
0770
0770
0E70
0E30
1C30
1CF8
7FF8
7F18
7018
7018
E01C
E01C
C00C
C00C
ENDCHAR
STARTCHAR 00C6
ENCODING 198
SWIDTH 1080 0
DWIDTH 27 0
BBX 26 21 1 -1
BITMAP
0007FF80
000FFFC0
001F81C0
003F0000
00770000
00F70000
00E70000
01C70000
03871F80
07FFFF80
07FFF800
0C060000
1C060000
18060000
30060000
30060000
60060000
E0070000
C0070000
C003FF80
0001FF80
ENDCHAR
STARTCHAR 00C7
ENCODING 199
SWIDTH 600 0
DWIDTH 15 0
BBX 14 24 1 -5
BITMAP
01F8
03FC
071C
0E1C
1C08
3800
3000
7000
6000
6000
E000
E000
E000
E000
E018
6038
70F0
3FE0
1F80
0700
0180
0380
3F00
3E00
ENDCHAR
STARTCHAR 00C8
ENCODING 200
SWIDTH 640 0
DWIDTH 16 0
BBX 13 27 2 0
BITMAP
0400
0E00
0700
0380
01C0
0080
0000
0000
FFF0
FFF8
E000
E000
E000
E000
E000
E000
C3F0
FFF0
FC00
C000
C000
C000
C000
C000
C000
FFF0
3FF0
ENDCHAR
STARTCHAR 00C9
ENCODING 201
SWIDTH 640 0
DWIDTH 16 0
BBX 13 27 2 0
BITMAP
0060
00E0
01C0
0180
0380
0000
0000
0000
FFF0
FFF8
E000
E000
E000
E000
E000
E000
C3F0
FFF0
FC00
C000
C000
C000
C000
C000
C000
FFF0
3FF0
ENDCHAR
STARTCHAR 00CA
ENCODING 202
SWIDTH 640 0
DWIDTH 16 0
BBX 13 27 2 0
BITMAP
0300
0780
0EE0
1C70
3830
0000
0000
0000
FFF0
FFF8
E000
E000
E000
E000
E000
E000
C3F0
FFF0
FC00
C000
C000
C000
C000
C000
C000
FFF0
3FF0
ENDCHAR
STARTCHAR 00CB
ENCODING 203
SWIDTH 640 0
DWIDTH 16 0
BBX 13 23 2 0
BITMAP
1C70
1C70
0000
0000
FFF0
FFF8
E000
E000
E000
E000
E000
E000
C3F0
FFF0
FC00
C000
C000
C000
C000
C000
C000
FFF0
3FF0
ENDCHAR
STARTCHAR 00CC
ENCODING 204
SWIDTH 560 0
DWIDTH 14 0
BBX 12 26 1 0
BITMAP
1800
1C00
0E00
0700
0300
0300
0000
FFE0
FFF0
0E00
0E00
0E00
0E00
0E00
0C00
0C00
0C00
0C00
0C00
0E00
0E00
0E00
0E00
0E00
FFE0
FFE0
ENDCHAR
STARTCHAR 00CD
ENCODING 205
SWIDTH 560 0
DWIDTH 14 0
BBX 12 26 1 0
BITMAP
01C0
03C0
0380
0700
0E00
0400
0000
FFE0
FFF0
0E00
0E00
0E00
0E00
0E00
0C00
0C00
0C00
0C00
0C00
0E00
0E00
0E00
0E00
0E00
FFE0
FFE0
ENDCHAR
STARTCHAR 00CE
ENCODING 206
SWIDTH 560 0
DWIDTH 14 0
BBX 12 26 1 0
BITMAP
0600
0F00
1FC0
38E0
6060
0000
0000
FFE0
FFF0
0E00
0E00
0E00
0E00
0E00
0C00
0C00
0C00
0C00
0C00
0E00
0E00
0E00
0E00
0E00
FFE0
FFE0
ENDCHAR
STARTCHAR 00CF
ENCODING 207
SWIDTH 560 0
DWIDTH 14 0
BBX 12 22 1 0
BITMAP
30E0
30E0
0000
FFE0
FFF0
0E00
0E00
0E00
0E00
0E00
0C00
0C00
0C00
0C00
0C00
0E00
0E00
0E00
0E00
0E00
FFE0
FFE0
ENDCHAR
STARTCHAR 00D0
ENCODING 208
SWIDTH 720 0
DWIDTH 18 0
BBX 17 20 0 -1
BITMAP
180000
3E0000
3BC000
38E000
383800
381C00
380E00
380700
380300
380300
FF8380
FF8380
380380
380380
380300
380700
380E00
381E00
3FF800
07E000
ENDCHAR
STARTCHAR 00D1
ENCODING 209
SWIDTH 800 0
DWIDTH 20 0
BBX 18 25 1 0
BITMAP
078600
0F8600
0CCC00
087C00
003800
000000
600180
F00380
700180
7801C0
7C01C0
6E01C0
6E01C0
6701C0
6381C0
61C1C0
60E1C0
60E1C0
6071C0
6039C0
601DC0
600FC0
6007C0
6003C0
600180
ENDCHAR
STARTCHAR 00D2
ENCODING 210
SWIDTH 800 0
DWIDTH 20 0
BBX 18 26 1 0
BITMAP
006000
007000
003800
001800
001C00
000C00
000000
01FC00
07FE00
0F0700
1C0380
380180
3801C0
7001C0
7001C0
6001C0
6001C0
E001C0
E00180
E00380
600380
700700
380E00
3C1E00
0FF800
03F000
ENDCHAR
STARTCHAR 00D3
ENCODING 211
SWIDTH 800 0
DWIDTH 20 0
BBX 18 26 1 0
BITMAP
000600
000E00
001C00
003800
003000
000000
000000
01FC00
07FE00
0F0700
1C0380
380180
3801C0
7001C0
7001C0
6001C0
6001C0
E001C0
E00180
E00380
600380
700700
380E00
3C1E00
0FF800
03F000
ENDCHAR
STARTCHAR 00D4
ENCODING 212
SWIDTH 800 0
DWIDTH 20 0
BBX 18 26 1 0
BITMAP
003000
007800
00FC00
03C700
030300
000000
000000
01FC00
07FE00
0F0700
1C0380
380180
3801C0
7001C0
7001C0
6001C0
6001C0
E001C0
E00180
E00380
600380
700700
380E00
3C1E00
0FF800
03F000
ENDCHAR
STARTCHAR 00D5
ENCODING 213
SWIDTH 800 0
DWIDTH 20 0
BBX 18 25 1 0
BITMAP
01E180
03E180
033300
021F00
000E00
000000
01FC00
07FE00
0F0700
1C0380
380180
3801C0
7001C0
7001C0
6001C0
6001C0
E001C0
E00180
E00380
600380
700700
380E00
3C1E00
0FF800
03F000
ENDCHAR
STARTCHAR 00D6
ENCODING 214
SWIDTH 800 0
DWIDTH 20 0
BBX 18 22 1 0
BITMAP
038E00
038E00
000000
01FC00
07FE00
0F0700
1C0380
380180
3801C0
7001C0
7001C0
6001C0
6001C0
E001C0
E00180
E00380
600380
700700
380E00
3C1E00
0FF800
03F000
ENDCHAR
STARTCHAR 00D7
ENCODING 215
SWIDTH 480 0
DWIDTH 12 0
BBX 9 9 1 3
BITMAP
C180
E380
7700
3E00
1E00
3F00
7B80
7380
6180
ENDCHAR
STARTCHAR 00D8
ENCODING 216
SWIDTH 800 0
DWIDTH 20 0
BBX 19 20 1 -1
BITMAP
01FC60
07FFE0
0F07C0
1C0780
1C0780
380FC0
301DC0
7038C0
7070C0
60E1C0
61C1C0
6181C0
630180
670380
7E0380
7C0700
3C0E00
7E1E00
EFFC00
C3F000
ENDCHAR
STARTCHAR 00D9
ENCODING 217
SWIDTH 720 0
DWIDTH 18 0
BBX 15 26 2 0
BITMAP
0C00
0E00
0700
0380
0180
0180
0000
C006
C00E
C00E
C00E
C00E
C00E
C00E
C00E
C00E
C00E
C00E
E00C
E00C
E01C
601C
7038
3870
1FF0
0FC0
ENDCHAR
STARTCHAR 00DA
ENCODING 218
SWIDTH 720 0
DWIDTH 18 0
BBX 15 26 2 0
BITMAP
0070
00F0
00E0
01C0
0380
0100
0000
C006
C00E
C00E
C00E
C00E
C00E
C00E
C00E
C00E
C00E
C00E
E00C
E00C
E01C
601C
7038
3870
1FF0
0FC0
ENDCHAR
STARTCHAR 00DB
ENCODING 219
SWIDTH 720 0
DWIDTH 18 0
BBX 15 26 2 0
BITMAP
0180
03C0
07F0
0E38
1818
0000
0000
C006
C00E
C00E
C00E
C00E
C00E
C00E
C00E
C00E
C00E
C00E
E00C
E00C
E01C
601C
7038
3870
1FF0
0FC0
ENDCHAR
STARTCHAR 00DC
ENCODING 220
SWIDTH 720 0
DWIDTH 18 0
BBX 15 22 2 0
BITMAP
0C38
0C38
0000
C006
C00E
C00E
C00E
C00E
C00E
C00E
C00E
C00E
C00E
C00E
E00C
E00C
E01C
601C
7038
3870
1FF0
0FC0
ENDCHAR
STARTCHAR 00DD
ENCODING 221
SWIDTH 640 0
DWIDTH 16 0
BBX 15 28 0 -1
BITMAP
0030
0070
00E0
00C0
01C0
0000
0000
0000
0000
6006
E00E
700E
381C
3818
1C38
0C38
0E70
0670
0760
03E0
01C0
01C0
0180
0380
0300
0700
0600
0600
ENDCHAR
STARTCHAR 00DE
ENCODING 222
SWIDTH 520 0
DWIDTH 13 0
BBX 11 19 1 0
BITMAP
6000
6000
7E00
7F80
61C0
60E0
6060
6060
E060
E060
E0E0
E1C0
FF80
FE00
C000
C000
C000
C000
C000
ENDCHAR
STARTCHAR 00DF
ENCODING 223
SWIDTH 440 0
DWIDTH 11 0
BBX 10 22 1 -2
BITMAP
1E00
3F00
7380
6180
E180
C180
C380
C380
C700
CF00
CE00
C700
C380
C180
C1C0
C1C0
C1C0
D1C0
DF80
CF00
C000
C000
ENDCHAR
STARTCHAR 00E0
ENCODING 224
SWIDTH 520 0
DWIDTH 13 0
BBX 11 20 1 0
BITMAP
1800
1C00
0E00
0700
0700
0300
0000
0F80
3FC0
78E0
70C0
E0C0
C0C0
C0C0
C0C0
C0C0
E0E0
E1E0
7FE0
1E60
ENDCHAR
STARTCHAR 00E1
ENCODING 225
SWIDTH 520 0
DWIDTH 13 0
BBX 11 20 1 0
BITMAP
00C0
01C0
0380
0300
0700
0000
0000
0F80
3FC0
78E0
70C0
E0C0
C0C0
C0C0
C0C0
C0C0
E0E0
E1E0
7FE0
1E60
ENDCHAR
STARTCHAR 00E2
ENCODING 226
SWIDTH 520 0
DWIDTH 13 0
BBX 11 20 1 0
BITMAP
0600
0F00
1F80
78E0
6060
0000
0000
0F80
3FC0
78E0
70C0
E0C0
C0C0
C0C0
C0C0
C0C0
E0E0
E1E0
7FE0
1E60
ENDCHAR
STARTCHAR 00E3
ENCODING 227
SWIDTH 520 0
DWIDTH 13 0
BBX 12 19 1 0
BITMAP
3C30
7E30
6630
43E0
01C0
0000
0F80
3FC0
78E0
70C0
E0C0
C0C0
C0C0
C0C0
C0C0
E0E0
E1E0
7FE0
1E60
ENDCHAR
STARTCHAR 00E4
ENCODING 228
SWIDTH 520 0
DWIDTH 13 0
BBX 11 16 1 0
BITMAP
38E0
38E0
0000
0F80
3FC0
78E0
70C0
E0C0
C0C0
C0C0
C0C0
C0C0
E0E0
E1E0
7FE0
1E60
ENDCHAR
STARTCHAR 00E5
ENCODING 229
SWIDTH 520 0
DWIDTH 13 0
BBX 11 22 1 0
BITMAP
0F80
1FC0
18E0
3060
38C0
1FC0
0F80
0000
0000
0F80
3FC0
78E0
70C0
E0C0
C0C0
C0C0
C0C0
C0C0
E0E0
E1E0
7FE0
1E60
ENDCHAR
STARTCHAR 00E6
ENCODING 230
SWIDTH 920 0
DWIDTH 23 0
BBX 21 14 1 -1
BITMAP
0FCFC0
1FDFE0
3878E0
707070
E0F060
E0E1E0
C0E380
C0EF00
C0FC00
E0F000
E06018
70F838
3FFFF0
1F6FC0
ENDCHAR
STARTCHAR 00E7
ENCODING 231
SWIDTH 520 0
DWIDTH 13 0
BBX 11 18 1 -5
BITMAP
0F00
1FC0
38E0
7040
6000
6000
E000
E000
E000
6000
70E0
3FE0
1F80
0700
0300
3300
3F00
1E00
ENDCHAR
STARTCHAR 00E8
ENCODING 232
SWIDTH 560 0
DWIDTH 14 0
BBX 12 20 1 0
BITMAP
1800
1C00
0E00
0600
0700
0300
0000
0F80
3FC0
70E0
60E0
E1E0
C780
DE00
F800
E000
E030
7070
3FE0
1F80
ENDCHAR
STARTCHAR 00E9
ENCODING 233
SWIDTH 560 0
DWIDTH 14 0
BBX 12 20 1 0
BITMAP
00C0
01C0
0180
0380
0700
0200
0000
0F80
3FC0
70E0
60E0
E1E0
C780
DE00
F800
E000
E030
7070
3FE0
1F80
ENDCHAR
STARTCHAR 00EA
ENCODING 234
SWIDTH 560 0
DWIDTH 14 0
BBX 12 20 1 0
BITMAP
0600
0F00
1DC0
38E0
7060
0000
0000
0F80
3FC0
70E0
60E0
E1E0
C780
DE00
F800
E000
E030
7070
3FE0
1F80
ENDCHAR
STARTCHAR 00EB
ENCODING 235
SWIDTH 560 0
DWIDTH 14 0
BBX 12 17 1 0
BITMAP
38E0
3860
0000
0000
0F80
3FC0
70E0
60E0
E1E0
C780
DE00
F800
E000
E030
7070
3FE0
1F80
ENDCHAR
STARTCHAR 00EC
ENCODING 236
SWIDTH 280 0
DWIDTH 7 0
BBX 5 20 0 0
BITMAP
40
E0
70
38
18
08
00
18
38
38
38
38
38
38
38
38
38
38
38
10
ENDCHAR
STARTCHAR 00ED
ENCODING 237
SWIDTH 280 0
DWIDTH 7 0
BBX 6 20 1 0
BITMAP
1C
3C
30
70
E0
40
00
30
70
70
70
70
70
70
70
70
70
70
70
20
ENDCHAR
STARTCHAR 00EE
ENCODING 238
SWIDTH 280 0
DWIDTH 7 0
BBX 10 19 -2 0
BITMAP
0C00
1E00
3B80
71C0
E0C0
0000
0600
0E00
0E00
0E00
0E00
0E00
0E00
0E00
0E00
0E00
0E00
0E00
0400
ENDCHAR
STARTCHAR 00EF
ENCODING 239
SWIDTH 280 0
DWIDTH 7 0
BBX 9 16 -1 0
BITMAP
C300
C380
0000
0C00
1C00
1C00
1C00
1C00
1C00
1C00
1C00
1C00
1C00
1C00
1C00
0800
ENDCHAR
STARTCHAR 00F0
ENCODING 240
SWIDTH 520 0
DWIDTH 13 0
BBX 10 20 2 0
BITMAP
3000
3000
3980
1F80
0F00
3E00
7F00
6300
0380
0780
1FC0
39C0
70C0
60C0
E0C0
C0C0
E1C0
6380
3F00
1E00
ENDCHAR
STARTCHAR 00F1
ENCODING 241
SWIDTH 520 0
DWIDTH 13 0
BBX 11 19 2 0
BITMAP
3860
FC60
CC60
C7C0
0380
0000
C700
DF80
D980
F1C0
E1C0
E1C0
C1C0
C1C0
C1C0
C0C0
C0C0
C0C0
C0C0
ENDCHAR
STARTCHAR 00F2
ENCODING 242
SWIDTH 520 0
DWIDTH 13 0
BBX 11 20 1 0
BITMAP
0C00
0E00
0700
0300
0380
0180
0000
0F00
3F80
71C0
70C0
E0E0
E060
E060
E060
E0E0
60C0
71C0
3F80
1F00
ENDCHAR
STARTCHAR 00F3
ENCODING 243
SWIDTH 520 0
DWIDTH 13 0
BBX 11 20 1 0
BITMAP
00C0
01C0
0380
0300
0700
0000
0000
0F00
3F80
71C0
70C0
E0E0
E060
E060
E060
E0E0
60C0
71C0
3F80
1F00
ENDCHAR
STARTCHAR 00F4
ENCODING 244
SWIDTH 520 0
DWIDTH 13 0
BBX 11 20 1 0
BITMAP
0600
0F00
1F80
78E0
6060
0000
0000
0F00
3F80
71C0
70C0
E0E0
E060
E060
E060
E0E0
60C0
71C0
3F80
1F00
ENDCHAR
STARTCHAR 00F5
ENCODING 245
SWIDTH 520 0
DWIDTH 13 0
BBX 12 19 1 0
BITMAP
1C10
3E30
6730
63E0
01E0
0000
0F00
3F80
71C0
70C0
E0E0
E060
E060
E060
E0E0
60C0
71C0
3F80
1F00
ENDCHAR
STARTCHAR 00F6
ENCODING 246
SWIDTH 520 0
DWIDTH 13 0
BBX 11 16 1 0
BITMAP
38E0
38E0
0000
0F00
3F80
71C0
70C0
E0E0
E060
E060
E060
E0E0
60C0
71C0
3F80
1F00
ENDCHAR
STARTCHAR 00F7
ENCODING 247
SWIDTH 480 0
DWIDTH 12 0
BBX 10 11 1 2
BITMAP
1800
0C00
0000
0000
0000
FFC0
FFC0
0000
0000
0C00
0C00
ENDCHAR
STARTCHAR 00F8
ENCODING 248
SWIDTH 520 0
DWIDTH 13 0
BBX 12 13 1 0
BITMAP
0F30
3FE0
71C0
60C0
E1E0
E3E0
C660
CC60
D8E0
F0C0
71C0
FF80
9F00
ENDCHAR
STARTCHAR 00F9
ENCODING 249
SWIDTH 520 0
DWIDTH 13 0
BBX 11 20 1 0
BITMAP
1800
1C00
0E00
0700
0300
0300
0000
6060
60E0
E0E0
E0E0
E0E0
E0E0
E0E0
E0E0
60E0
60E0
60E0
7FE0
1FE0
ENDCHAR
STARTCHAR 00FA
ENCODING 250
SWIDTH 520 0
DWIDTH 13 0
BBX 11 20 1 0
BITMAP
00C0
01C0
0380
0700
0700
0000
0000
6060
60E0
E0E0
E0E0
E0E0
E0E0
E0E0
E0E0
60E0
60E0
60E0
7FE0
1FE0
ENDCHAR
STARTCHAR 00FB
ENCODING 251
SWIDTH 520 0
DWIDTH 13 0
BBX 11 20 1 0
BITMAP
0C00
1F00
3B80
71C0
60C0
0000
0000
6060
60E0
E0E0
E0E0
E0E0
E0E0
E0E0
E0E0
60E0
60E0
60E0
7FE0
1FE0
ENDCHAR
STARTCHAR 00FC
ENCODING 252
SWIDTH 520 0
DWIDTH 13 0
BBX 11 17 1 0
BITMAP
30E0
30E0
0000
0000
6060
60E0
E0E0
E0E0
E0E0
E0E0
E0E0
E0E0
60E0
60E0
60E0
7FE0
1FE0
ENDCHAR
STARTCHAR 00FD
ENCODING 253
SWIDTH 520 0
DWIDTH 13 0
BBX 13 27 0 -7
BITMAP
0180
0380
0300
0700
0E00
0000
0000
C030
C038
E070
7070
70E0
38E0
38C0
1DC0
1D80
0F80
0F00
0700
0600
0E00
0E00
0C00
1C00
1800
1800
1800
ENDCHAR
STARTCHAR 00FE
ENCODING 254
SWIDTH 520 0
DWIDTH 13 0
BBX 11 25 1 -7
BITMAP
6000
E000
E000
E000
E000
E780
FFC0
78E0
70E0
6060
6060
6060
6060
6060
60E0
61C0
7FC0
7F00
6000
6000
6000
6000
6000
6000
6000
ENDCHAR
STARTCHAR 00FF
ENCODING 255
SWIDTH 520 0
DWIDTH 13 0
BBX 13 23 0 -7
BITMAP
30E0
30E0
0000
C030
C038
E070
7070
70E0
38E0
38C0
1DC0
1D80
0F80
0F00
0700
0600
0E00
0E00
0C00
1C00
1800
1800
1800
ENDCHAR
STARTCHAR 0100
ENCODING 256
SWIDTH 720 0
DWIDTH 18 0
BBX 14 22 2 0
BITMAP
03FC
03FC
0000
0040
00E0
01E0
01E0
03E0
0770
0770
0E70
0E30
1C30
1CF8
7FF8
7F18
7018
7018
E01C
E01C
C00C
C00C
ENDCHAR
STARTCHAR 0101
ENCODING 257
SWIDTH 520 0
DWIDTH 13 0
BBX 11 16 1 0
BITMAP
3FE0
3FC0
0000
0F80
3FC0
78C0
60C0
E0C0
C0C0
C0C0
C0C0
C0C0
C0C0
E1E0
7FE0
3E60
ENDCHAR
STARTCHAR 0102
ENCODING 258
SWIDTH 720 0
DWIDTH 18 0
BBX 14 25 2 0
BITMAP
0C04
0C0C
061C
07F8
01F0
0000
0040
00E0
01E0
01E0
03E0
0770
0770
0E70
0E30
1C30
1CF8
7FF8
7F18
7018
7018
E01C
E01C
C00C
C00C
ENDCHAR
STARTCHAR 0103
ENCODING 259
SWIDTH 520 0
DWIDTH 13 0
BBX 11 19 1 0
BITMAP
6060
6060
70E0
3FC0
1F00
0000
0F80
3FC0
78C0
60C0
E0C0
C0C0
C0C0
C0C0
C0C0
C0C0
E1E0
7FE0
3E60
ENDCHAR
STARTCHAR 0104
ENCODING 260
SWIDTH 720 0
DWIDTH 18 0
BBX 17 23 2 -4
BITMAP
004000
00E000
01E000
01E000
03E000
077000
077000
0E7000
0E3000
1C3000
1CF800
7FF800
7E1800
701800
601800
E01C00
E01C00
C00C00
C01C00
001800
001800
001F80
000F00
ENDCHAR
STARTCHAR 0105
ENCODING 261
SWIDTH 520 0
DWIDTH 13 0
BBX 15 17 1 -4
BITMAP
0F80
3FC0
78C0
60C0
E0C0
C0C0
C0C0
C0C0
C0C0
C0C0
E1E0
7FE0
3E60
0040
0066
007E
003C
ENDCHAR
STARTCHAR 0106
ENCODING 262
SWIDTH 600 0
DWIDTH 15 0
BBX 14 26 1 0
BITMAP
0030
0070
00E0
01C0
01C0
0000
0000
01F8
03FC
071C
0E08
1C00
3800
3800
7000
6000
E000
E000
E000
E000
E000
E018
6038
70F0
3FE0
0F80
ENDCHAR
STARTCHAR 0107
ENCODING 263
SWIDTH 520 0
DWIDTH 13 0
BBX 11 20 1 0
BITMAP
0180
0380
0300
0700
0E00
0400
0000
0F80
1FC0
38C0
7000
6000
6000
E000
E000
E000
6000
70E0
3FE0
0F80
ENDCHAR
STARTCHAR 0108
ENCODING 264
SWIDTH 600 0
DWIDTH 15 0
BBX 14 26 1 0
BITMAP
00C0
03E0
07F0
0E38
0C0C
0000
0000
01F8
03FC
071C
0E08
1C00
3800
3800
7000
6000
E000
E000
E000
E000
E000
E018
6038
70F0
3FE0
0F80
ENDCHAR
STARTCHAR 0109
ENCODING 265
SWIDTH 520 0
DWIDTH 13 0
BBX 11 20 1 0
BITMAP
0600
0F00
1DC0
38E0
7060
0000
0000
0F80
1FC0
38C0
7000
6000
6000
E000
E000
E000
6000
70E0
3FE0
0F80
ENDCHAR
STARTCHAR 010A
ENCODING 266
SWIDTH 600 0
DWIDTH 15 0
BBX 14 22 1 0
BITMAP
00C0
0060
0000
01F8
03FC
071C
0E08
1C00
3800
3800
7000
6000
E000
E000
E000
E000
E000
E018
6038
70F0
3FE0
0F80
ENDCHAR
STARTCHAR 010B
ENCODING 267
SWIDTH 520 0
DWIDTH 13 0
BBX 11 16 1 0
BITMAP
0600
0300
0000
0F80
1FC0
38C0
7000
6000
6000
E000
E000
E000
6000
70E0
3FE0
0F80
ENDCHAR
STARTCHAR 010C
ENCODING 268
SWIDTH 600 0
DWIDTH 15 0
BBX 14 26 1 0
BITMAP
0600
0718
0338
03F0
01E0
01C0
0000
01F8
03FC
071C
0E08
1C00
3800
3800
7000
6000
E000
E000
E000
E000
E000
E018
6038
70F0
3FE0
0F80
ENDCHAR
STARTCHAR 010D
ENCODING 269
SWIDTH 600 0
DWIDTH 15 0
BBX 11 20 1 0
BITMAP
1000
1840
1CC0
0D80
0F00
0600
0400
0F80
1FC0
38C0
7000
6000
6000
E000
E000
E000
6000
70E0
3FE0
0F80
ENDCHAR
STARTCHAR 010E
ENCODING 270
SWIDTH 720 0
DWIDTH 18 0
BBX 15 26 2 0
BITMAP
3000
3840
19C0
1F80
0F00
0600
0000
6000
F800
EF00
E3C0
E0E0
E070
E038
E01C
E00C
E00E
E00E
E00E
E00E
E00C
E01C
E038
E078
7FF0
1F80
ENDCHAR
STARTCHAR 010F
ENCODING 271
SWIDTH 840 0
DWIDTH 21 0
BBX 17 20 1 0
BITMAP
003180
003380
003180
003180
003380
003300
003000
0FB000
3FF000
70F000
607000
603000
E03000
C03000
C03000
E03000
607000
70F000
3FF000
0FB000
ENDCHAR
STARTCHAR 0110
ENCODING 272
SWIDTH 720 0
DWIDTH 18 0
BBX 17 20 0 -1
BITMAP
180000
3E0000
3BC000
38E000
383800
381C00
380E00
380700
380300
380300
FF8380
FF8380
380380
380380
380300
380700
380E00
381E00
3FF800
07E000
ENDCHAR
STARTCHAR 0111
ENCODING 273
SWIDTH 600 0
DWIDTH 15 0
BBX 14 20 1 0
BITMAP
0030
0030
0030
03FC
03FC
0030
0030
0FB0
3FF0
30F0
6070
6030
E030
C030
C030
E030
6070
70F0
3FF0
0FB0
ENDCHAR
STARTCHAR 0112
ENCODING 274
SWIDTH 640 0
DWIDTH 16 0
BBX 13 22 2 0
BITMAP
1FF0
1FF0
0000
FFF0
FFF8
E000
E000
E000
E000
E000
E000
C3F0
FFF0
FC00
C000
C000
C000
C000
C000
C000
FFF0
3FF0
ENDCHAR
STARTCHAR 0113
ENCODING 275
SWIDTH 560 0
DWIDTH 14 0
BBX 12 16 1 0
BITMAP
3FE0
3FC0
0000
0F80
3FC0
70E0
60E0
E1E0
C780
DE00
F800
E000
E030
7070
3FE0
1F80
ENDCHAR
STARTCHAR 0114
ENCODING 276
SWIDTH 640 0
DWIDTH 16 0
BBX 13 25 2 0
BITMAP
3010
3038
1870
1FE0
07C0
0000
FFF0
FFF8
E000
E000
E000
E000
E000
E000
C3F0
FFF0
FC00
C000
C000
C000
C000
C000
C000
FFF0
3FF0
ENDCHAR
STARTCHAR 0115
ENCODING 277
SWIDTH 560 0
DWIDTH 14 0
BBX 12 19 1 0
BITMAP
6020
6060
70E0
3FC0
1F00
0000
0F80
3FC0
70E0
60E0
E1E0
C780
DE00
F800
E000
E030
7070
3FE0
1F80
ENDCHAR
STARTCHAR 0116
ENCODING 278
SWIDTH 640 0
DWIDTH 16 0
BBX 13 22 2 0
BITMAP
0380
0180
0000
FFF0
FFF8
E000
E000
E000
E000
E000
E000
C3F0
FFF0
FC00
C000
C000
C000
C000
C000
C000
FFF0
3FF0
ENDCHAR
STARTCHAR 0117
ENCODING 279
SWIDTH 560 0
DWIDTH 14 0
BBX 12 16 1 0
BITMAP
0E00
0600
0000
0F80
3FC0
70E0
60E0
E1E0
C780
DE00
F800
E000
E030
7070
3FE0
1F80
ENDCHAR
STARTCHAR 0118
ENCODING 280
SWIDTH 640 0
DWIDTH 16 0
BBX 13 23 2 -4
BITMAP
7FF8
7FF8
6000
6000
6000
6000
6000
6000
61F0
FFF8
7E00
E000
E000
E000
E000
6000
6000
7FF0
3FF0
0180
0188
01F8
00F0
ENDCHAR
STARTCHAR 0119
ENCODING 281
SWIDTH 560 0
DWIDTH 14 0
BBX 12 19 1 -6
BITMAP
0F80
3FC0
30E0
6060
61E0
E7C0
DF00
FC00
F800
E000
E030
7070
3FE0
1FC0
0700
0600
0300
03F0
01E0
ENDCHAR
STARTCHAR 011A
ENCODING 282
SWIDTH 640 0
DWIDTH 16 0
BBX 13 26 2 0
BITMAP
1800
1C20
0CE0
0FC0
0780
0300
0000
FFF0
FFF8
E000
E000
E000
E000
E000
E000
C3F0
FFF0
FC00
C000
C000
C000
C000
C000
C000
FFF0
3FF0
ENDCHAR
STARTCHAR 011B
ENCODING 283
SWIDTH 560 0
DWIDTH 14 0
BBX 12 20 1 0
BITMAP
1000
1840
1CC0
0D80
0F00
0600
0400
0F80
3FC0
70E0
60E0
E1E0
C780
DE00
F800
E000
E030
7070
3FE0
1F80
ENDCHAR
STARTCHAR 011C
ENCODING 284
SWIDTH 680 0
DWIDTH 17 0
BBX 16 26 1 0
BITMAP
00C0
01E0
03F8
071C
0C0C
0000
0000
01E0
07F8
0E1C
1C00
3800
3800
7000
7000
6000
E1FE
E7FF
C70E
C00E
C01C
E01C
E038
70F0
3FE0
1F80
ENDCHAR
STARTCHAR 011D
ENCODING 285
SWIDTH 520 0
DWIDTH 13 0
BBX 12 27 1 -7
BITMAP
0700
0F80
1FC0
38E0
3070
0000
0000
0F80
3FE0
7860
6060
E060
C060
C0E0
C0E0
C0E0
C1E0
E3E0
7FC0
3CC0
00C0
00C0
00C0
01C0
0380
FF80
FE00
ENDCHAR
STARTCHAR 011E
ENCODING 286
SWIDTH 680 0
DWIDTH 17 0
BBX 16 25 1 0
BITMAP
0C0C
0C0C
0E1C
07F8
03E0
0000
01E0
07F8
0E1C
1C00
3800
3800
7000
7000
6000
E1FE
E7FF
C70E
C00E
C01C
E01C
E038
70F0
3FE0
1F80
ENDCHAR
STARTCHAR 011F
ENCODING 287
SWIDTH 520 0
DWIDTH 13 0
BBX 12 26 1 -7
BITMAP
2030
3030
3070
1FE0
0F80
0000
0F80
3FE0
7860
6060
E060
C060
C0E0
C0E0
C0E0
C1E0
E3E0
7FC0
3CC0
00C0
00C0
00C0
01C0
0380
FF80
FE00
ENDCHAR
STARTCHAR 0120
ENCODING 288
SWIDTH 680 0
DWIDTH 17 0
BBX 16 22 1 0
BITMAP
00C0
00E0
0000
01E0
07F8
0E1C
1C00
3800
3800
7000
7000
6000
E1FE
E7FF
C70E
C00E
C01C
E01C
E038
70F0
3FE0
1F80
ENDCHAR
STARTCHAR 0121
ENCODING 289
SWIDTH 520 0
DWIDTH 13 0
BBX 11 23 1 -7
BITMAP
0300
0380
0000
0F80
3FE0
7860
6060
E060
C060
C0E0
C0E0
C0E0
C1E0
E3E0
7FC0
3CC0
00C0
00C0
00C0
01C0
0380
FF80
FE00
ENDCHAR
STARTCHAR 0122
ENCODING 290
SWIDTH 680 0
DWIDTH 17 0
BBX 15 24 1 -5
BITMAP
01E0
07F8
0E1C
1C00
1800
3800
7000
7000
6000
E0FE
E7FE
C70E
C00C
C01C
E01C
E038
70F0
7FE0
3F80
0600
0300
2300
3E00
1C00
ENDCHAR
STARTCHAR 0123
ENCODING 291
SWIDTH 520 0
DWIDTH 13 0
BBX 11 28 1 -7
BITMAP
0300
0700
0600
0600
0700
0600
0000
0000
0F80
3FE0
7860
6060
E060
C060
C0E0
C0E0
C0E0
C1E0
E3E0
7FC0
3CC0
00C0
00C0
00C0
01C0
0380
FF80
FE00
ENDCHAR
STARTCHAR 0124
ENCODING 292
SWIDTH 760 0
DWIDTH 19 0
BBX 16 26 2 0
BITMAP
0180
03C0
07F0
0E38
1818
0000
0000
6003
E003
E007
E007
E007
E007
E007
E007
E006
E0FE
FFFE
FF06
E006
E006
E006
C006
C006
C006
C006
ENDCHAR
STARTCHAR 0125
ENCODING 293
SWIDTH 560 0
DWIDTH 14 0
BBX 12 26 2 0
BITMAP
0300
0780
1FC0
3CE0
3030
0000
C000
C000
C000
E000
E000
C000
C000
C780
DFC0
D8C0
F0C0
E0C0
E0C0
C0C0
C0E0
C0E0
C0E0
C0E0
C060
C060
ENDCHAR
STARTCHAR 0126
ENCODING 294
SWIDTH 760 0
DWIDTH 19 0
BBX 20 19 0 0
BITMAP
1800C0
3801C0
3801C0
FFFFF0
FFFFE0
3801C0
3801C0
3801C0
380180
381F80
39FF80
3FE180
3E0180
380180
380180
300180
300180
300180
300180
ENDCHAR
STARTCHAR 0127
ENCODING 295
SWIDTH 560 0
DWIDTH 14 0
BBX 13 20 0 0
BITMAP
3000
3000
3800
FF80
FF80
3000
3000
31E0
33F0
3630
3C30
3C30
3830
3830
3038
3038
3038
3038
3018
3018
ENDCHAR
STARTCHAR 0128
ENCODING 296
SWIDTH 560 0
DWIDTH 14 0
BBX 12 25 1 0
BITMAP
3820
7C60
CE60
C7C0
03C0
0000
FFE0
FFF0
0E00
0E00
0E00
0E00
0E00
0C00
0C00
0C00
0C00
0C00
0E00
0E00
0E00
0E00
0E00
FFE0
FFE0
ENDCHAR
STARTCHAR 0129
ENCODING 297
SWIDTH 280 0
DWIDTH 7 0
BBX 11 19 -2 0
BITMAP
7860
FC60
CCE0
87C0
0380
0000
0600
0E00
0E00
0E00
0E00
0E00
0E00
0E00
0E00
0E00
0E00
0E00
0400
ENDCHAR
STARTCHAR 012A
ENCODING 298
SWIDTH 560 0
DWIDTH 14 0
BBX 12 22 1 0
BITMAP
3FC0
3FC0
0000
FFE0
FFF0
0E00
0E00
0E00
0E00
0E00
0C00
0C00
0C00
0C00
0C00
0E00
0E00
0E00
0E00
0E00
FFE0
FFE0
ENDCHAR
STARTCHAR 012B
ENCODING 299
SWIDTH 280 0
DWIDTH 7 0
BBX 8 16 -1 0
BITMAP
FF
FF
00
0C
1C
1C
1C
1C
1C
1C
1C
1C
1C
1C
1C
08
ENDCHAR
STARTCHAR 012C
ENCODING 300
SWIDTH 560 0
DWIDTH 14 0
BBX 12 25 1 0
BITMAP
4060
6060
60E0
3FC0
1F00
0000
FFE0
FFF0
0E00
0E00
0E00
0E00
0E00
0C00
0C00
0C00
0C00
0C00
0E00
0E00
0E00
0E00
0E00
FFE0
FFE0
ENDCHAR
STARTCHAR 012D
ENCODING 301
SWIDTH 280 0
DWIDTH 7 0
BBX 11 19 -2 0
BITMAP
4060
C060
60C0
7FC0
1F00
0000
0600
0E00
0E00
0E00
0E00
0E00
0E00
0E00
0E00
0E00
0E00
0E00
0400
ENDCHAR
STARTCHAR 012E
ENCODING 302
SWIDTH 560 0
DWIDTH 14 0
BBX 12 23 1 -4
BITMAP
FFE0
FFF0
0E00
0E00
0E00
0E00
0E00
0C00
0C00
0C00
0C00
0C00
0E00
0E00
0E00
0E00
0E00
FFE0
FFE0
1800
1880
0FC0
0780
ENDCHAR
STARTCHAR 012F
ENCODING 303
SWIDTH 280 0
DWIDTH 7 0
BBX 6 22 1 -4
BITMAP
30
30
00
00
00
30
70
70
70
70
70
70
70
70
70
70
70
E0
80
CC
FC
78
ENDCHAR
STARTCHAR 0130
ENCODING 304
SWIDTH 560 0
DWIDTH 14 0
BBX 12 22 1 0
BITMAP
0E00
0600
0000
FFE0
FFF0
0E00
0E00
0E00
0E00
0E00
0C00
0C00
0C00
0C00
0C00
0E00
0E00
0E00
0E00
0E00
FFE0
FFE0
ENDCHAR
STARTCHAR 0131
ENCODING 305
SWIDTH 280 0
DWIDTH 7 0
BBX 3 13 2 0
BITMAP
60
E0
E0
E0
E0
E0
E0
E0
E0
E0
E0
E0
40
ENDCHAR
STARTCHAR 0132
ENCODING 306
SWIDTH 1120 0
DWIDTH 28 0
BBX 26 19 1 0
BITMAP
FFE1FFC0
FFF1FFC0
0E000C00
0E000C00
0E000C00
0E000C00
0E000C00
0C000C00
0C000C00
0C000C00
0C000C00
0C000C00
0E001C00
0E0C1C00
0E0C1800
0E0E1800
0E071800
FFE3F800
FFE0F000
ENDCHAR
STARTCHAR 0133
ENCODING 307
SWIDTH 520 0
DWIDTH 13 0
BBX 9 25 2 -7
BITMAP
6300
6300
0000
0000
0000
6300
E300
E380
E380
E380
E380
E380
E380
E380
E380
E380
E180
4180
0180
0180
6180
7180
3380
3F00
0E00
ENDCHAR
STARTCHAR 0134
ENCODING 308
SWIDTH 680 0
DWIDTH 17 0
BBX 15 26 1 0
BITMAP
0180
03C0
0770
0E38
1C18
0000
0000
1FFC
1FFE
00E0
00E0
00E0
00E0
00E0
00E0
00E0
00E0
00C0
00C0
00C0
C0C0
E0C0
E1C0
7980
3F80
0F00
ENDCHAR
STARTCHAR 0135
ENCODING 309
SWIDTH 400 0
DWIDTH 10 0
BBX 10 28 -1 -7
BITMAP
0C00
0E00
1F00
3B80
71C0
E0C0
40C0
0000
0300
0300
0300
0300
0300
0380
0380
0380
0380
0380
0380
0380
0380
0380
0180
6180
7380
7380
3F00
1E00
ENDCHAR
STARTCHAR 0136
ENCODING 310
SWIDTH 600 0
DWIDTH 15 0
BBX 12 24 3 -5
BITMAP
C060
C0E0
C1E0
C1C0
C380
C700
CE00
DC00
F800
F000
F000
F800
DC00
CE00
C700
C3C0
C1E0
CCF0
CE70
0300
0180
3380
1F00
0E00
ENDCHAR
STARTCHAR 0137
ENCODING 311
SWIDTH 560 0
DWIDTH 14 0
BBX 11 24 2 -5
BITMAP
C000
E000
E000
E000
E000
E0C0
E1E0
E1E0
E3C0
E780
EF00
FE00
FE00
F700
E380
E380
C1C0
CCE0
CE60
0340
0180
3380
1F00
0E00
ENDCHAR
STARTCHAR 0138
ENCODING 312
SWIDTH 560 0
DWIDTH 14 0
BBX 11 13 2 0
BITMAP
C0C0
C1C0
C380
C780
CF00
DE00
FE00
FE00
E700
C380
C1C0
C0E0
C0C0
ENDCHAR
STARTCHAR 0139
ENCODING 313
SWIDTH 560 0
DWIDTH 14 0
BBX 12 26 1 0
BITMAP
0180
0380
0700
0E00
0E00
0000
0000
6000
6000
6000
6000
6000
6000
6000
6000
6000
6000
6000
6000
E000
E000
E000
E000
E000
FFF0
7FF0
ENDCHAR
STARTCHAR 013A
ENCODING 314
SWIDTH 280 0
DWIDTH 7 0
BBX 6 26 2 0
BITMAP
0C
1C
38
70
60
40
60
E0
E0
E0
E0
E0
E0
E0
E0
E0
E0
E0
E0
E0
E0
E0
E0
E0
E0
C0
ENDCHAR
STARTCHAR 013B
ENCODING 315
SWIDTH 560 0
DWIDTH 14 0
BBX 12 23 1 -4
BITMAP
6000
6000
6000
6000
6000
6000
6000
6000
6000
6000
6000
6000
E000
E000
E000
E000
E000
FFF0
7FF0
0300
1180
1F80
0F00
ENDCHAR
STARTCHAR 013C
ENCODING 316
SWIDTH 280 0
DWIDTH 7 0
BBX 6 24 2 -5
BITMAP
60
E0
E0
E0
E0
E0
E0
E0
E0
E0
E0
E0
E0
E0
E0
E0
E0
F0
F8
1C
0C
CC
FC
78
ENDCHAR
STARTCHAR 013D
ENCODING 317
SWIDTH 560 0
DWIDTH 14 0
BBX 12 19 1 0
BITMAP
61C0
61C0
61C0
60C0
61C0
6180
6000
6000
6000
6000
6000
6000
E000
E000
E000
E000
E000
FFF0
7FF0
ENDCHAR
STARTCHAR 013E
ENCODING 318
SWIDTH 480 0
DWIDTH 12 0
BBX 8 20 2 0
BITMAP
66
E7
E7
E6
E6
E4
E0
E0
E0
E0
E0
E0
E0
E0
E0
E0
E0
E0
E0
C0
ENDCHAR
STARTCHAR 013F
ENCODING 319
SWIDTH 560 0
DWIDTH 14 0
BBX 12 19 1 0
BITMAP
6000
6000
6000
6000
6000
6000
6000
6000
6000
60C0
61C0
60C0
E000
E000
E000
E000
E000
FFF0
7FF0
ENDCHAR
STARTCHAR 0140
ENCODING 320
SWIDTH 400 0
DWIDTH 10 0
BBX 8 20 2 0
BITMAP
60
E0
E0
E0
E0
E0
E0
E0
E0
E0
E6
E7
E6
E0
E0
E0
E0
E0
E0
C0
ENDCHAR
STARTCHAR 0141
ENCODING 321
SWIDTH 560 0
DWIDTH 14 0
BBX 15 19 -2 0
BITMAP
0C00
0C00
0C00
0C00
0C00
0C00
0D80
0F80
0F00
1C00
7C00
FC00
6C00
1C00
1C00
1C00
1C00
1FFE
0FFE
ENDCHAR
STARTCHAR 0142
ENCODING 322
SWIDTH 240 0
DWIDTH 6 0
BBX 8 20 -1 0
BITMAP
18
18
18
18
18
18
18
1B
1F
1E
3C
78
F8
D8
18
18
18
18
18
18
ENDCHAR
STARTCHAR 0143
ENCODING 323
SWIDTH 800 0
DWIDTH 20 0
BBX 18 26 1 0
BITMAP
003000
007000
00E000
01C000
018000
000000
000000
600180
F00380
700180
7801C0
7C01C0
6E01C0
6E01C0
6701C0
6381C0
61C1C0
60E1C0
60E1C0
6071C0
6039C0
601DC0
600FC0
6007C0
6003C0
600180
ENDCHAR
STARTCHAR 0144
ENCODING 324
SWIDTH 520 0
DWIDTH 13 0
BBX 10 20 2 0
BITMAP
0300
0700
0E00
1C00
1800
0000
0000
C700
DF80
D980
F1C0
E1C0
E1C0
C1C0
C1C0
C1C0
C0C0
C0C0
C0C0
C0C0
ENDCHAR
STARTCHAR 0145
ENCODING 325
SWIDTH 800 0
DWIDTH 20 0
BBX 18 24 1 -5
BITMAP
600180
F00380
700180
7801C0
7C01C0
6E01C0
6E01C0
6701C0
6381C0
61C1C0
60E1C0
60E1C0
6071C0
6039C0
601DC0
600FC0
6007C0
6183C0
61E180
006000
003000
023000
03E000
01E000
ENDCHAR
STARTCHAR 0146
ENCODING 326
SWIDTH 520 0
DWIDTH 13 0
BBX 10 18 2 -5
BITMAP
C700
DF80
D980
F1C0
E1C0
E1C0
C1C0
C1C0
C1C0
C0C0
C0C0
DCC0
DEC0
0700
0300
3300
3F00
1E00
ENDCHAR
STARTCHAR 0147
ENCODING 327
SWIDTH 800 0
DWIDTH 20 0
BBX 18 26 1 0
BITMAP
060000
070800
031800
01F000
01E000
00C000
000000
600180
F00380
700180
7801C0
7C01C0
6E01C0
6E01C0
6701C0
6381C0
61C1C0
60E1C0
60E1C0
6071C0
6039C0
601DC0
600FC0
6007C0
6003C0
600180
ENDCHAR
STARTCHAR 0148
ENCODING 328
SWIDTH 520 0
DWIDTH 13 0
BBX 10 20 2 0
BITMAP
2000
3080
3980
1B00
1E00
0C00
0800
C700
DF80
D980
F1C0
E1C0
E1C0
C1C0
C1C0
C1C0
C0C0
C0C0
C0C0
C0C0
ENDCHAR
STARTCHAR 0149
ENCODING 329
SWIDTH 640 0
DWIDTH 16 0
BBX 14 19 1 0
BITMAP
4000
C000
C000
C000
C000
8000
18F0
1DF8
1F18
1E18
1E18
1C18
1C18
1C18
1818
1818
181C
181C
180C
ENDCHAR
STARTCHAR 014A
ENCODING 330
SWIDTH 800 0
DWIDTH 20 0
BBX 18 24 1 -5
BITMAP
600180
F00380
700180
7801C0
6C01C0
6C01C0
6601C0
6301C0
6301C0
6181C0
60C1C0
6061C0
6061C0
6031C0
6019C0
600DC0
6007C0
6003C0
6001C0
0001C0
000180
000380
003F00
001E00
ENDCHAR
STARTCHAR 014B
ENCODING 331
SWIDTH 520 0
DWIDTH 13 0
BBX 10 20 2 -7
BITMAP
C700
DF80
D980
F1C0
E1C0
E1C0
C1C0
C1C0
C1C0
C1C0
C0C0
C0C0
C0C0
00C0
00C0
00C0
18C0
1DC0
1F80
0700
ENDCHAR
STARTCHAR 014C
ENCODING 332
SWIDTH 800 0
DWIDTH 20 0
BBX 18 22 1 0
BITMAP
01FE00
01FE00
000000
01FC00
07FE00
0F0700
1C0380
380180
3801C0
7001C0
7001C0
6001C0
6001C0
E001C0
E00180
E00380
600380
700700
380E00
3C1E00
0FF800
03F000
ENDCHAR
STARTCHAR 014D
ENCODING 333
SWIDTH 520 0
DWIDTH 13 0
BBX 11 16 1 0
BITMAP
3FC0
3FC0
0000
0F00
3F80
71C0
60C0
E0E0
E060
C060
C060
E0E0
E0C0
71C0
3F80
1F00
ENDCHAR
STARTCHAR 014E
ENCODING 334
SWIDTH 800 0
DWIDTH 20 0
BBX 18 25 1 0
BITMAP
030100
030380
018700
01FE00
007C00
000000
01FC00
07FE00
0F0700
1C0380
380180
3801C0
7001C0
7001C0
6001C0
6001C0
E001C0
E00180
E00380
600380
700700
380E00
3C1E00
0FF800
03F000
ENDCHAR
STARTCHAR 014F
ENCODING 335
SWIDTH 520 0
DWIDTH 13 0
BBX 12 19 1 0
BITMAP
6030
6030
30E0
3FE0
0F80
0000
0F00
3F80
71C0
60C0
E0E0
E060
C060
C060
E0E0
E0C0
71C0
3F80
1F00
ENDCHAR
STARTCHAR 0150
ENCODING 336
SWIDTH 800 0
DWIDTH 20 0
BBX 18 25 1 0
BITMAP
003300
007700
00EE00
01DC00
019800
000000
01FC00
07FE00
0F0700
1C0380
380180
3801C0
7001C0
7001C0
6001C0
6001C0
E001C0
E00180
E00380
600380
700700
380E00
3C1E00
0FF800
03F000
ENDCHAR
STARTCHAR 0151
ENCODING 337
SWIDTH 520 0
DWIDTH 13 0
BBX 11 19 1 0
BITMAP
0660
0EE0
1DC0
3B80
3300
0000
0F00
3F80
71C0
60C0
E0E0
E060
C060
C060
E0E0
E0C0
71C0
3F80
1F00
ENDCHAR
STARTCHAR 0152
ENCODING 338
SWIDTH 1200 0
DWIDTH 30 0
BBX 28 19 2 0
BITMAP
03F9FFF0
0FFFFFE0
1E0F8000
38038000
30038000
70038000
60018000
E0018000
C00187E0
C003FFE0
C003F800
C0038000
C0038000
C0078000
E00F8000
700F8000
383D8000
1FF9FFE0
07E0FFC0
ENDCHAR
STARTCHAR 0153
ENCODING 339
SWIDTH 880 0
DWIDTH 22 0
BBX 21 13 1 -1
BITMAP
0F0FC0
3F9FE0
71F870
60F070
E0F0E0
E063C0
C06F00
C07C00
E0F000
E0E018
71F838
3FBFF0
1F0FC0
ENDCHAR
STARTCHAR 0154
ENCODING 340
SWIDTH 640 0
DWIDTH 16 0
BBX 14 26 1 0
BITMAP
01C0
03C0
0380
0700
0E00
0400
0000
7E00
7F80
63C0
60E0
6070
6038
6038
6018
6038
6078
E0F0
FFC0
FF00
FFC0
63E0
60F0
6078
601C
600C
ENDCHAR
STARTCHAR 0155
ENCODING 341
SWIDTH 480 0
DWIDTH 12 0
BBX 9 20 2 0
BITMAP
0300
0700
0E00
1C00
3800
1000
0000
C780
DF80
F980
E180
C180
C000
C000
C000
C000
C000
C000
C000
C000
ENDCHAR
STARTCHAR 0156
ENCODING 342
SWIDTH 640 0
DWIDTH 16 0
BBX 14 24 1 -5
BITMAP
7E00
7F80
63C0
60E0
6070
6038
6038
6018
6038
6078
E0F0
FFC0
FF00
FFC0
63E0
60F0
6078
661C
670C
0180
00C0
19C0
0F80
0700
ENDCHAR
STARTCHAR 0157
ENCODING 343
SWIDTH 480 0
DWIDTH 12 0
BBX 10 18 1 -5
BITMAP
67C0
6FC0
7CC0
70C0
60C0
6000
6000
6000
6000
6000
6000
6000
7800
1800
0C00
8C00
FC00
7800
ENDCHAR
STARTCHAR 0158
ENCODING 344
SWIDTH 640 0
DWIDTH 16 0
BBX 14 26 1 0
BITMAP
3000
3840
19C0
1F80
0F00
0600
0000
7E00
7F80
63C0
60E0
6070
6038
6038
6018
6038
6078
E0F0
FFC0
FF00
FFC0
63E0
60F0
6078
601C
600C
ENDCHAR
STARTCHAR 0159
ENCODING 345
SWIDTH 480 0
DWIDTH 12 0
BBX 9 20 2 0
BITMAP
C000
E100
6300
3E00
3C00
1800
0000
C780
DF80
F980
E180
C180
C000
C000
C000
C000
C000
C000
C000
C000
ENDCHAR
STARTCHAR 015A
ENCODING 346
SWIDTH 680 0
DWIDTH 17 0
BBX 14 27 2 -1
BITMAP
0060
00E0
01C0
0380
0700
0200
0000
03E0
0FF8
1C38
3800
7000
7000
7000
7800
3FE0
0FF0
0078
001C
001C
000C
000C
C01C
C038
E078
7FE0
1F80
ENDCHAR
STARTCHAR 015B
ENCODING 347
SWIDTH 480 0
DWIDTH 12 0
BBX 10 20 1 0
BITMAP
0180
0380
0700
0600
0E00
0000
0000
01C0
1FC0
7CC0
70C0
E0C0
7C00
7F00
0780
01C0
01C0
C1C0
FF80
7E00
ENDCHAR
STARTCHAR 015C
ENCODING 348
SWIDTH 680 0
DWIDTH 17 0
BBX 14 27 2 -1
BITMAP
0300
07C0
0EE0
1C70
1830
0000
0000
03E0
0FF8
1C38
3800
7000
7000
7000
7800
3FE0
0FF0
0078
001C
001C
000C
000C
C01C
C038
E078
7FE0
1F80
ENDCHAR
STARTCHAR 015D
ENCODING 349
SWIDTH 480 0
DWIDTH 12 0
BBX 10 20 1 0
BITMAP
0C00
3E00
7F00
E380
C0C0
0000
0000
01C0
1FC0
7CC0
70C0
E0C0
7C00
7F00
0780
01C0
01C0
C1C0
FF80
7E00
ENDCHAR
STARTCHAR 015E
ENCODING 350
SWIDTH 680 0
DWIDTH 17 0
BBX 14 25 2 -6
BITMAP
03E0
0FF8
1C38
3800
7000
7000
7000
7E00
3FE0
0FF8
0078
001C
001C
000C
000C
C01C
C038
E078
7FF0
1FC0
0300
0180
3380
1F00
0E00
ENDCHAR
STARTCHAR 015F
ENCODING 351
SWIDTH 480 0
DWIDTH 12 0
BBX 10 18 1 -5
BITMAP
01C0
1FC0
3FC0
7CC0
60C0
6000
7E00
1F80
0380
01C0
C1C0
FF80
7F00
0C00
0600
4600
7C00
3C00
ENDCHAR
STARTCHAR 0160
ENCODING 352
SWIDTH 680 0
DWIDTH 17 0
BBX 14 27 2 -1
BITMAP
0600
0618
0738
03F0
01E0
01C0
0000
03E0
0FF8
1C38
3800
3000
7000
7000
7800
3FE0
0FF0
0078
001C
001C
000C
000C
C01C
C038
E078
7FE0
1F80
ENDCHAR
STARTCHAR 0161
ENCODING 353
SWIDTH 480 0
DWIDTH 12 0
BBX 10 20 1 0
BITMAP
6000
7080
3180
1B00
1E00
0C00
0800
01C0
1FC0
7CC0
70C0
60C0
7C00
7F00
0780
01C0
01C0
C1C0
FF80
7E00
ENDCHAR
STARTCHAR 0162
ENCODING 354
SWIDTH 680 0
DWIDTH 17 0
BBX 17 26 1 -7
BITMAP
FFFF00
7FFF80
018000
018000
018000
018000
018000
018000
01C000
01C000
01C000
01C000
01C000
01C000
01C000
01C000
01C000
01C000
00C000
000000
018000
03C000
01C000
018000
018000
030000
ENDCHAR
STARTCHAR 0163
ENCODING 355
SWIDTH 480 0
DWIDTH 12 0
BBX 10 24 1 -7
BITMAP
0C00
1C00
1C00
0C00
FFC0
FFC0
0C00
0C00
0C00
0C00
0C00
0C00
0C00
0C00
0C00
0C00
0C00
0000
0C00
1E00
0E00
0C00
0C00
1800
ENDCHAR
STARTCHAR 0164
ENCODING 356
SWIDTH 680 0
DWIDTH 17 0
BBX 17 26 1 0
BITMAP
040000
061000
073000
036000
03C000
018000
010000
FFFF00
7FFF80
018000
018000
018000
018000
018000
018000
01C000
01C000
01C000
01C000
01C000
01C000
01C000
01C000
01C000
01C000
00C000
ENDCHAR
STARTCHAR 0165
ENCODING 357
SWIDTH 640 0
DWIDTH 16 0
BBX 14 17 1 0
BITMAP
0C1C
1C1C
1C1C
0C0C
FFDC
FFD8
0C00
0C00
0C00
0C00
0C00
0C00
0C00
0C00
0C00
0C00
0C00
ENDCHAR
STARTCHAR 0166
ENCODING 358
SWIDTH 680 0
DWIDTH 17 0
BBX 16 19 1 0
BITMAP
FFFF
FFFF
0300
0300
0300
0300
0300
0380
1FF0
1FF0
0380
0380
0380
0380
0380
0180
0180
0380
0180
ENDCHAR
STARTCHAR 0167
ENCODING 359
SWIDTH 480 0
DWIDTH 12 0
BBX 10 17 1 0
BITMAP
0800
1C00
1C00
0C00
FFC0
FFC0
0C00
0C00
7F80
7F80
0C00
0C00
0C00
0C00
0C00
0C00
0C00
ENDCHAR
STARTCHAR 0168
ENCODING 360
SWIDTH 720 0
DWIDTH 18 0
BBX 15 25 2 0
BITMAP
0E08
1F18
3198
31F8
00F0
0000
C006
C00E
C00E
C00E
C00E
C00E
C00E
C00E
C00E
C00E
C00E
E00C
E00C
E01C
601C
7038
3870
1FF0
0FC0
ENDCHAR
STARTCHAR 0169
ENCODING 361
SWIDTH 520 0
DWIDTH 13 0
BBX 11 19 1 0
BITMAP
3820
7C60
CE60
C7C0
03C0
0000
6060
60E0
E0E0
E0E0
E0E0
E0E0
E0E0
E0E0
60E0
60E0
60E0
7FE0
1FE0
ENDCHAR
STARTCHAR 016A
ENCODING 362
SWIDTH 720 0
DWIDTH 18 0
BBX 15 22 2 0
BITMAP
0FF0
0FF0
0000
C006
C00E
C00E
C00E
C00E
C00E
C00E
C00E
C00E
C00E
C00E
E00C
E00C
E01C
601C
7038
3870
1FF0
0FC0
ENDCHAR
STARTCHAR 016B
ENCODING 363
SWIDTH 520 0
DWIDTH 13 0
BBX 11 16 1 0
BITMAP
3FC0
3FC0
0000
6060
60E0
E0E0
E0E0
E0E0
E0E0
E0E0
E0E0
60E0
60E0
60E0
7FE0
1FE0
ENDCHAR
STARTCHAR 016C
ENCODING 364
SWIDTH 720 0
DWIDTH 18 0
BBX 15 25 2 0
BITMAP
1818
1818
1C38
0FF0
07C0
0000
C006
C00E
C00E
C00E
C00E
C00E
C00E
C00E
C00E
C00E
C00E
E00C
E00C
E01C
601C
7038
3870
1FF0
0FC0
ENDCHAR
STARTCHAR 016D
ENCODING 365
SWIDTH 520 0
DWIDTH 13 0
BBX 11 19 1 0
BITMAP
4060
6060
60E0
3FC0
1F00
0000
6060
60E0
E0E0
E0E0
E0E0
E0E0
E0E0
E0E0
60E0
60E0
60E0
7FE0
1FE0
ENDCHAR
STARTCHAR 016E
ENCODING 366
SWIDTH 720 0
DWIDTH 18 0
BBX 15 28 2 0
BITMAP
07C0
0FE0
1860
1860
1860
0FE0
0780
0000
0000
C006
C00E
C00E
C00E
C00E
C00E
C00E
C00E
C00E
C00E
C00E
E00C
E00C
E01C
601C
7038
3870
1FF0
0FC0
ENDCHAR
STARTCHAR 016F
ENCODING 367
SWIDTH 520 0
DWIDTH 13 0
BBX 11 22 1 0
BITMAP
1E00
3F80
6180
6180
6180
3F80
1E00
0000
0000
6060
60E0
E0E0
E0E0
E0E0
E0E0
E0E0
E0E0
60E0
60E0
60E0
7FE0
1FE0
ENDCHAR
STARTCHAR 0170
ENCODING 368
SWIDTH 720 0
DWIDTH 18 0
BBX 15 25 2 0
BITMAP
0188
03B8
0730
0660
0C40
0000
C006
C00E
C00E
C00E
C00E
C00E
C00E
C00E
C00E
C00E
C00E
E00C
E00C
E01C
601C
7038
3870
1FF0
0FC0
ENDCHAR
STARTCHAR 0171
ENCODING 369
SWIDTH 520 0
DWIDTH 13 0
BBX 11 19 1 0
BITMAP
0220
0660
0CC0
19C0
1100
0000
6060
60E0
E0E0
E0E0
E0E0
E0E0
E0E0
E0E0
60E0
60E0
60E0
7FE0
1FE0
ENDCHAR
STARTCHAR 0172
ENCODING 370
SWIDTH 720 0
DWIDTH 18 0
BBX 15 24 2 -5
BITMAP
C006
C00E
C00E
C00E
C00E
C00E
C00E
C00E
C00E
C00E
C00E
E00C
E00C
E01C
601C
7038
3870
1FF0
0FC0
0300
0600
0620
03F0
01E0
ENDCHAR
STARTCHAR 0173
ENCODING 371
SWIDTH 520 0
DWIDTH 13 0
BBX 13 18 1 -5
BITMAP
6060
60E0
E0E0
E0E0
E0E0
E0E0
E0E0
E0E0
60E0
60E0
60E0
7FE0
3FE0
0180
0300
0310
01F8
00F0
ENDCHAR
STARTCHAR 0174
ENCODING 372
SWIDTH 1040 0
DWIDTH 26 0
BBX 23 26 2 0
BITMAP
003000
007C00
00FE00
01C700
018380
000000
000000
C01806
E03806
E0380E
E0780E
607C0C
707C0C
70FC1C
30EC18
30EC38
39CC38
19CC30
19CE70
1B8E60
1F8660
1F06E0
0F07C0
0F07C0
0E0780
0E0380
ENDCHAR
STARTCHAR 0175
ENCODING 373
SWIDTH 680 0
DWIDTH 17 0
BBX 15 20 1 0
BITMAP
0180
07C0
0FE0
1C70
1818
0000
0000
C186
C386
E386
E38E
E7CE
66CC
66CC
6CDC
6CD8
7CD8
3878
3870
3070
ENDCHAR
STARTCHAR 0176
ENCODING 374
SWIDTH 640 0
DWIDTH 16 0
BBX 15 27 0 -1
BITMAP
0300
0780
0EE0
1C70
3830
0000
0000
0000
6006
E00E
700E
381C
3818
1C38
0C38
0E70
0670
0760
03E0
01C0
01C0
0180
0380
0300
0700
0600
0600
ENDCHAR
STARTCHAR 0177
ENCODING 375
SWIDTH 520 0
DWIDTH 13 0
BBX 13 27 0 -7
BITMAP
0600
0F00
1FC0
38E0
6060
0000
0000
C030
C038
E070
7070
70E0
38E0
38C0
1DC0
1D80
0F80
0F00
0700
0600
0E00
0E00
0C00
1C00
1800
1800
1800
ENDCHAR
STARTCHAR 0178
ENCODING 376
SWIDTH 640 0
DWIDTH 16 0
BBX 15 23 0 -1
BITMAP
0C38
0C38
0000
0000
6006
E00E
700E
381C
3818
1C38
0C38
0E70
0670
0760
03E0
01C0
01C0
0180
0380
0300
0700
0600
0600
ENDCHAR
STARTCHAR 0179
ENCODING 377
SWIDTH 680 0
DWIDTH 17 0
BBX 16 26 1 0
BITMAP
0060
00E0
01C0
0180
0380
0000
0000
FFFE
FFFF
001E
0038
0070
00E0
01C0
0380
0380
0700
0E00
0E00
1C00
3800
3800
7000
E000
FFFF
FFFF
ENDCHAR
STARTCHAR 017A
ENCODING 378
SWIDTH 520 0
DWIDTH 13 0
BBX 11 20 2 0
BITMAP
0380
0780
0700
0E00
1C00
0800
0000
FFE0
FFC0
01C0
0380
0700
0700
0E00
1C00
1C00
3800
7000
FFC0
FFC0
ENDCHAR
STARTCHAR 017B
ENCODING 379
SWIDTH 680 0
DWIDTH 17 0
BBX 16 22 1 0
BITMAP
0180
0180
0000
FFFE
FFFF
001E
0038
0070
00E0
01C0
0380
0380
0700
0E00
0E00
1C00
3800
3800
7000
E000
FFFF
FFFF
ENDCHAR
STARTCHAR 017C
ENCODING 380
SWIDTH 520 0
DWIDTH 13 0
BBX 11 16 2 0
BITMAP
0E00
0600
0000
FFE0
FFC0
01C0
0380
0700
0700
0E00
1C00
1C00
3800
7000
FFC0
FFC0
ENDCHAR
STARTCHAR 017D
ENCODING 381
SWIDTH 680 0
DWIDTH 17 0
BBX 16 27 1 0
BITMAP
0400
0E10
0630
0360
03C0
0180
0100
0000
FFFE
FFFF
001E
0038
0070
00E0
01C0
0380
0380
0700
0E00
0E00
1C00
3800
3800
7000
E000
FFFF
FFFF
ENDCHAR
STARTCHAR 017E
ENCODING 382
SWIDTH 520 0
DWIDTH 13 0
BBX 11 20 2 0
BITMAP
C000
E100
6700
7E00
3C00
1800
0000
FFE0
FFC0
01C0
0380
0700
0700
0E00
1C00
1C00
3800
7000
FFC0
FFC0
ENDCHAR
STARTCHAR 017F
ENCODING 383
SWIDTH 520 0
DWIDTH 13 0
BBX 7 21 4 -2
BITMAP
1E
3E
70
60
E0
E0
E0
E0
C0
C0
C0
C0
C0
C0
C0
C0
C0
C0
C0
C0
C0
ENDCHAR
STARTCHAR 0192
ENCODING 402
SWIDTH 440 0
DWIDTH 11 0
BBX 15 24 -1 -4
BITMAP
001E
003E
0070
00E0
00C0
00C0
0180
0180
0180
0380
1FF8
1FF0
0300
0700
0700
0600
0600
0600
0E00
0C00
1C00
3800
F000
E000
ENDCHAR
STARTCHAR 01FA
ENCODING 506
SWIDTH 720 0
DWIDTH 18 0
BBX 14 27 2 0
BITMAP
0018
0038
0030
00F0
03F8
030C
030C
030C
03F8
01F0
01E0
01E0
03E0
0770
0770
0E70
0E30
1C30
1CF8
7FF8
7F18
7018
7018
E01C
E01C
C00C
C00C
ENDCHAR
STARTCHAR 01FB
ENCODING 507
SWIDTH 520 0
DWIDTH 13 0
BBX 11 24 1 0
BITMAP
0180
0380
0300
0200
0F80
1FC0
18E0
3060
38C0
1FC0
0F80
0F80
3FC0
78E0
70C0
E0C0
C0C0
C0C0
C0C0
C0C0
E0E0
E1E0
7FE0
1E60
ENDCHAR
STARTCHAR 01FC
ENCODING 508
SWIDTH 1080 0
DWIDTH 27 0
BBX 26 27 1 -1
BITMAP
00001C00
00003C00
00003800
00007000
0000E000
00004000
0007FF80
000FFFC0
001F81C0
003F0000
00770000
00F70000
00E70000
01C70000
03871F80
07FFFF80
07FFF800
0C060000
1C060000
18060000
30060000
30060000
60060000
E0070000
C0070000
C003FF80
0001FF80
ENDCHAR
STARTCHAR 01FD
ENCODING 509
SWIDTH 920 0
DWIDTH 23 0
BBX 21 21 1 -1
BITMAP
000C00
001C00
001800
003800
007000
002000
000000
0FCFC0
1FDFE0
3878E0
707070
E0F060
E0E1E0
C0E380
C0EF00
C0FC00
E0F000
E06018
70F838
3FFFF0
1F6FC0
ENDCHAR
STARTCHAR 01FE
ENCODING 510
SWIDTH 800 0
DWIDTH 20 0
BBX 19 27 1 -1
BITMAP
003800
007800
006000
00E000
01C000
008000
000000
01FC60
07FFE0
0F07C0
1C0780
1C0780
380FC0
301DC0
7038C0
7070C0
60E1C0
61C1C0
6181C0
630180
670380
7E0380
7C0700
3C0E00
7E1E00
EFFC00
C3F000
ENDCHAR
STARTCHAR 01FF
ENCODING 511
SWIDTH 520 0
DWIDTH 13 0
BBX 12 20 1 0
BITMAP
0180
0380
0300
0700
0E00
0400
0000
0F30
3FE0
71C0
60C0
E1E0
E3E0
C660
CC60
D8E0
F0C0
71C0
FF80
9F00
ENDCHAR
STARTCHAR 02C6
ENCODING 710
SWIDTH 560 0
DWIDTH 14 0
BBX 10 5 2 15
BITMAP
0C00
1E00
3B80
71C0
E0C0
ENDCHAR
STARTCHAR 02C7
ENCODING 711
SWIDTH 560 0
DWIDTH 14 0
BBX 7 7 4 13
BITMAP
80
C2
E6
6C
78
30
20
ENDCHAR
STARTCHAR 02C9
ENCODING 713
SWIDTH 560 0
DWIDTH 14 0
BBX 9 2 3 14
BITMAP
FF80
FF80
ENDCHAR
STARTCHAR 02D8
ENCODING 728
SWIDTH 560 0
DWIDTH 14 0
BBX 10 5 3 14
BITMAP
80C0
C0C0
C1C0
7F80
3E00
ENDCHAR
STARTCHAR 02D9
ENCODING 729
SWIDTH 560 0
DWIDTH 14 0
BBX 3 2 4 14
BITMAP
C0
E0
ENDCHAR
STARTCHAR 02DA
ENCODING 730
SWIDTH 560 0
DWIDTH 14 0
BBX 8 7 3 15
BITMAP
3E
7F
E3
C1
E3
7F
3E
ENDCHAR
STARTCHAR 02DB
ENCODING 731
SWIDTH 560 0
DWIDTH 14 0
BBX 6 6 4 -4
BITMAP
60
E0
80
CC
FC
78
ENDCHAR
STARTCHAR 02DC
ENCODING 732
SWIDTH 560 0
DWIDTH 14 0
BBX 11 5 2 14
BITMAP
3820
7C60
CE60
C7C0
03C0
ENDCHAR
STARTCHAR 02DD
ENCODING 733
SWIDTH 560 0
DWIDTH 14 0
BBX 8 5 3 14
BITMAP
11
33
66
CE
88
ENDCHAR
STARTCHAR 037E
ENCODING 894
SWIDTH 280 0
DWIDTH 7 0
BBX 4 15 1 -2
BITMAP
30
70
30
00
00
00
00
00
00
00
30
70
E0
C0
C0
ENDCHAR
STARTCHAR 0384
ENCODING 900
SWIDTH 560 0
DWIDTH 14 0
BBX 3 4 6 14
BITMAP
60
E0
C0
80
ENDCHAR
STARTCHAR 0385
ENCODING 901
SWIDTH 560 0
DWIDTH 14 0
BBX 11 4 2 14
BITMAP
0600
0EE0
CCE0
C800
ENDCHAR
STARTCHAR 0386
ENCODING 902
SWIDTH 720 0
DWIDTH 18 0
BBX 14 19 2 0
BITMAP
3040
30E0
71E0
61E0
03E0
0770
0770
0E70
0E30
1C30
1CF8
7FF8
7F18
7018
7018
E01C
E01C
C00C
C00C
ENDCHAR
STARTCHAR 0387
ENCODING 903
SWIDTH 240 0
DWIDTH 6 0
BBX 3 3 2 8
BITMAP
C0
E0
C0
ENDCHAR
STARTCHAR 0388
ENCODING 904
SWIDTH 800 0
DWIDTH 20 0
BBX 17 19 2 0
BITMAP
6FFF00
EFFF80
CE0000
8E0000
0E0000
0E0000
0E0000
0E0000
0E1F00
0FFF00
0FE000
0C0000
0C0000
0C0000
0C0000
0C0000
0E0000
07FF00
03FF00
ENDCHAR
STARTCHAR 0389
ENCODING 905
SWIDTH 1000 0
DWIDTH 25 0
BBX 21 19 2 0
BITMAP
330018
730018
630018
C30018
030018
030018
030018
030018
030038
0303F8
03FFF8
03FC38
030038
070038
070038
070038
070038
070018
060018
ENDCHAR
STARTCHAR 038A
ENCODING 906
SWIDTH 760 0
DWIDTH 19 0
BBX 17 19 1 0
BITMAP
67FF00
E7FF80
C03000
807000
007000
007000
007000
007000
007000
007000
007000
007000
007000
007000
007000
007000
007000
03FF80
03FF80
ENDCHAR
STARTCHAR 038C
ENCODING 908
SWIDTH 880 0
DWIDTH 22 0
BBX 20 19 1 0
BITMAP
607E00
61FF80
E3C1C0
C700E0
0E0060
0E0070
1C0070
1C0070
180070
380070
380070
380060
3800E0
1800E0
1C01C0
0E0380
0F0700
03FE00
00FC00
ENDCHAR
STARTCHAR 038E
ENCODING 910
SWIDTH 840 0
DWIDTH 21 0
BBX 19 20 1 -1
BITMAP
600000
E60060
C70060
8700E0
0380C0
01C1C0
01C180
00E380
006380
007700
003F00
003E00
001E00
000C00
001C00
003800
003800
007000
007000
006000
ENDCHAR
STARTCHAR 038F
ENCODING 911
SWIDTH 960 0
DWIDTH 24 0
BBX 22 21 1 -2
BITMAP
601FC0
E07FE0
C1E070
C38030
070038
0E0038
1C0038
1C0038
180038
180038
180030
1C0070
1C0070
0C00E0
0E01C0
0E03C0
060380
0707FC
3F03FC
FF0000
FC0000
ENDCHAR
STARTCHAR 0390
ENCODING 912
SWIDTH 280 0
DWIDTH 7 0
BBX 11 18 -1 0
BITMAP
0600
06E0
CCE0
CC00
0000
0C00
1C00
1C00
1C00
1C00
1C00
1C00
1C00
1C00
1C00
1C00
1C00
0800
ENDCHAR
STARTCHAR 0391
ENCODING 913
SWIDTH 720 0
DWIDTH 18 0
BBX 14 19 2 0
BITMAP
0040
00E0
01E0
01E0
03E0
0770
0770
0E70
0E30
1C30
1CF8
7FF8
7F18
7018
7018
E01C
E01C
C00C
C00C
ENDCHAR
STARTCHAR 0392
ENCODING 914
SWIDTH 640 0
DWIDTH 16 0
BBX 13 20 2 -1
BITMAP
7E00
7F80
61C0
60E0
6060
6070
6060
6060
60E0
61C0
FF80
FFE0
E1F0
E078
E038
E038
E070
E3E0
FFC0
7E00
ENDCHAR
STARTCHAR 0393
ENCODING 915
SWIDTH 600 0
DWIDTH 15 0
BBX 12 19 2 0
BITMAP
FFF0
FFF0
E000
E000
E000
E000
6000
6000
6000
6000
6000
6000
6000
6000
7000
7000
7000
7000
6000
ENDCHAR
STARTCHAR 0394
ENCODING 916
SWIDTH 800 0
DWIDTH 20 0
BBX 18 20 1 0
BITMAP
004000
00E000
01E000
01F000
01B000
03B800
039800
071C00
070C00
060E00
0E0600
0E0700
1C0700
1C0380
380380
380180
7001C0
7001C0
FFFCC0
FFFFC0
ENDCHAR
STARTCHAR 0395
ENCODING 917
SWIDTH 640 0
DWIDTH 16 0
BBX 13 19 2 0
BITMAP
FFF0
FFF8
E000
E000
E000
E000
E000
E000
C3F0
FFF0
FC00
C000
C000
C000
C000
C000
C000
FFF0
3FF0
ENDCHAR
STARTCHAR 0396
ENCODING 918
SWIDTH 680 0
DWIDTH 17 0
BBX 16 19 1 0
BITMAP
FFFE
FFFF
001E
0038
0070
00E0
01C0
0380
0380
0700
0E00
0E00
1C00
3800
3800
7000
E000
FFFF
FFFF
ENDCHAR
STARTCHAR 0397
ENCODING 919
SWIDTH 760 0
DWIDTH 19 0
BBX 16 19 2 0
BITMAP
6003
E003
E007
E007
E007
E007
E007
E007
E006
E0FE
FFFE
FF06
E006
E006
E006
C006
C006
C006
C006
ENDCHAR
STARTCHAR 0398
ENCODING 920
SWIDTH 800 0
DWIDTH 20 0
BBX 18 19 1 0
BITMAP
01FC00
07FE00
0F0700
1C0380
380180
3801C0
7001C0
7001C0
67F9C0
67F9C0
E001C0
E00180
E00380
600380
700700
380E00
3C1E00
0FF800
03F000
ENDCHAR
STARTCHAR 0399
ENCODING 921
SWIDTH 560 0
DWIDTH 14 0
BBX 12 19 1 0
BITMAP
FFE0
FFF0
0E00
0E00
0E00
0E00
0E00
0C00
0C00
0C00
0C00
0C00
0E00
0E00
0E00
0E00
0E00
FFE0
FFE0
ENDCHAR
STARTCHAR 039A
ENCODING 922
SWIDTH 600 0
DWIDTH 15 0
BBX 12 19 3 0
BITMAP
C060
C0E0
C1E0
C1C0
C380
C700
CE00
DC00
F800
F000
F000
F800
DC00
CE00
C700
C3C0
C1E0
C0F0
C070
ENDCHAR
STARTCHAR 039B
ENCODING 923
SWIDTH 680 0
DWIDTH 17 0
BBX 17 19 0 0
BITMAP
00C000
00E000
00E000
01F000
01F000
01F800
03B800
03B800
071C00
071C00
0E1E00
0E0E00
1C0E00
1C0700
380700
700700
700380
E00380
C00180
ENDCHAR
STARTCHAR 039C
ENCODING 924
SWIDTH 880 0
DWIDTH 22 0
BBX 20 20 1 -1
BITMAP
060300
0E0380
0E0780
1E0780
1F0780
1F0780
1F0F80
1B0FC0
1B0DC0
3B8CC0
3B9CC0
3398C0
7198E0
71F8E0
71F8E0
61F060
60F070
E0F070
E0E070
606030
ENDCHAR
STARTCHAR 039D
ENCODING 925
SWIDTH 800 0
DWIDTH 20 0
BBX 18 19 1 0
BITMAP
600180
F00380
700180
7801C0
7C01C0
6E01C0
6E01C0
6701C0
6381C0
61C1C0
60E1C0
60E1C0
6071C0
6039C0
601DC0
600FC0
6007C0
6003C0
600180
ENDCHAR
STARTCHAR 039E
ENCODING 926
SWIDTH 720 0
DWIDTH 18 0
BBX 16 19 1 0
BITMAP
FFFE
FFFE
0000
0000
0000
0000
0000
0000
3FF8
3FF8
0000
0000
0000
0000
0000
0000
0000
FFFF
FFFF
ENDCHAR
STARTCHAR 039F
ENCODING 927
SWIDTH 800 0
DWIDTH 20 0
BBX 18 19 1 0
BITMAP
01FC00
07FE00
0F0700
1C0380
380180
3801C0
7001C0
7001C0
6001C0
6001C0
E001C0
E00180
E00380
600380
700700
380E00
3C1E00
0FF800
03F000
ENDCHAR
STARTCHAR 03A0
ENCODING 928
SWIDTH 920 0
DWIDTH 23 0
BBX 20 19 1 0
BITMAP
FFFFF0
FFFFF0
1C01C0
1C01C0
1C01C0
1C01C0
1C01C0
1C01C0
0C01C0
0C01C0
0C01C0
0C01C0
1C01C0
1C01C0
1C00C0
1C00C0
1C00C0
1C00C0
0C00C0
ENDCHAR
STARTCHAR 03A1
ENCODING 929
SWIDTH 520 0
DWIDTH 13 0
BBX 11 19 1 0
BITMAP
7E00
7F80
61C0
60E0
6060
6060
6060
6060
E0E0
E3C0
FF80
FE00
E000
C000
C000
C000
C000
C000
C000
ENDCHAR
STARTCHAR 03A3
ENCODING 931
SWIDTH 760 0
DWIDTH 19 0
BBX 15 19 2 0
BITMAP
FFFC
FFFC
F000
7800
3C00
1C00
0E00
0700
0380
0380
0780
0F00
0E00
1C00
3800
7800
F000
FFFE
FFFE
ENDCHAR
STARTCHAR 03A4
ENCODING 932
SWIDTH 680 0
DWIDTH 17 0
BBX 17 19 1 0
BITMAP
FFFF00
7FFF80
018000
018000
018000
018000
018000
018000
01C000
01C000
01C000
01C000
01C000
01C000
01C000
01C000
01C000
01C000
00C000
ENDCHAR
STARTCHAR 03A5
ENCODING 933
SWIDTH 640 0
DWIDTH 16 0
BBX 15 19 0 -1
BITMAP
6006
E00E
700E
381C
3818
1C38
0C38
0E70
0670
0760
03E0
01C0
01C0
0180
0380
0300
0700
0600
0600
ENDCHAR
STARTCHAR 03A6
ENCODING 934
SWIDTH 640 0
DWIDTH 16 0
BBX 15 20 1 -1
BITMAP
1FF0
1FF0
0380
07E0
1FF0
3B38
331C
630C
630C
E30E
C30C
C30C
C30C
E318
7378
3FF0
1FC0
03F0
1FF0
1E00
ENDCHAR
STARTCHAR 03A7
ENCODING 935
SWIDTH 720 0
DWIDTH 18 0
BBX 16 19 1 0
BITMAP
6003
7007
780E
380E
1C1C
0E38
0770
07F0
03E0
01C0
03E0
0770
0E70
1E38
3C1C
781C
700E
E007
C003
ENDCHAR
STARTCHAR 03A8
ENCODING 936
SWIDTH 680 0
DWIDTH 17 0
BBX 15 19 1 0
BITMAP
C186
C386
C386
C386
C386
C38E
C38E
C38C
E39C
639C
73B8
3FF0
0FC0
0300
0300
0300
0300
0300
0300
ENDCHAR
STARTCHAR 03A9
ENCODING 937
SWIDTH 960 0
DWIDTH 24 0
BBX 22 21 1 -2
BITMAP
001F80
00FFE0
01E070
078030
0F0030
0E0030
1C0038
180038
180030
180030
180070
180070
1C0060
1C00E0
0C01C0
0E0380
060780
0707FC
7F03FC
FF0000
F80000
ENDCHAR
STARTCHAR 03AA
ENCODING 938
SWIDTH 560 0
DWIDTH 14 0
BBX 12 22 1 0
BITMAP
30E0
30E0
0000
FFE0
FFF0
0E00
0E00
0E00
0E00
0E00
0C00
0C00
0C00
0C00
0C00
0E00
0E00
0E00
0E00
0E00
FFE0
FFE0
ENDCHAR
STARTCHAR 03AB
ENCODING 939
SWIDTH 640 0
DWIDTH 16 0
BBX 15 23 0 -1
BITMAP
0C38
0C38
0000
0000
6006
E00E
700E
381C
3818
1C38
0C38
0E70
0670
0760
03E0
01C0
01C0
0180
0380
0300
0700
0600
0600
ENDCHAR
STARTCHAR 03AC
ENCODING 940
SWIDTH 520 0
DWIDTH 13 0
BBX 11 18 1 0
BITMAP
0100
0300
0700
0600
0000
0F60
3FE0
78E0
60E0
E0C0
C0C0
C0C0
C0C0
C0C0
C0C0
E1E0
7FE0
3F20
ENDCHAR
STARTCHAR 03AD
ENCODING 941
SWIDTH 480 0
DWIDTH 12 0
BBX 9 19 2 -1
BITMAP
0C00
0C00
1C00
1800
0000
1E00
7F00
E380
E000
6000
7800
7800
F800
E000
C000
C000
E180
7F80
3E00
ENDCHAR
STARTCHAR 03AE
ENCODING 942
SWIDTH 520 0
DWIDTH 13 0
BBX 11 22 2 -4
BITMAP
0600
0E00
0C00
0800
0000
C700
DF80
D980
F1C0
E1C0
E1C0
E1C0
C1C0
C1C0
C1C0
C0C0
C0C0
C0C0
00C0
00C0
00E0
00C0
ENDCHAR
STARTCHAR 03AF
ENCODING 943
SWIDTH 280 0
DWIDTH 7 0
BBX 3 18 2 0
BITMAP
60
60
E0
C0
00
60
E0
E0
E0
E0
E0
E0
E0
E0
E0
E0
E0
40
ENDCHAR
STARTCHAR 03B0
ENCODING 944
SWIDTH 520 0
DWIDTH 13 0
BBX 12 18 1 0
BITMAP
0300
0770
6670
6400
0000
C060
E060
E060
C060
C060
C060
C060
C0E0
E0E0
E0C0
71C0
3F80
1F00
ENDCHAR
STARTCHAR 03B1
ENCODING 945
SWIDTH 520 0
DWIDTH 13 0
BBX 11 13 1 0
BITMAP
0F60
3FE0
78E0
60E0
E0C0
C0C0
C0C0
C0C0
C0C0
C0C0
E1E0
7FE0
3F20
ENDCHAR
STARTCHAR 03B2
ENCODING 946
SWIDTH 600 0
DWIDTH 15 0
BBX 12 22 1 -4
BITMAP
1E00
3F00
7380
7380
7380
6300
6780
63E0
6070
6070
6030
6030
6030
6030
6070
70F0
7FE0
7F80
6000
E000
E000
6000
ENDCHAR
STARTCHAR 03B3
ENCODING 947
SWIDTH 480 0
DWIDTH 12 0
BBX 11 17 1 -4
BITMAP
C060
C0E0
E0C0
61C0
71C0
7180
3380
3B00
1F00
1F00
1E00
0E00
0C00
0C00
0C00
0C00
0C00
ENDCHAR
STARTCHAR 03B4
ENCODING 948
SWIDTH 520 0
DWIDTH 13 0
BBX 11 19 1 0
BITMAP
7FE0
7FE0
3C00
1E00
0F00
0700
0F80
3FC0
71C0
60C0
E0E0
E060
C060
C060
E0E0
E0C0
71C0
3F80
1F00
ENDCHAR
STARTCHAR 03B5
ENCODING 949
SWIDTH 480 0
DWIDTH 12 0
BBX 9 14 2 -1
BITMAP
1E00
7F00
E380
E000
6000
7800
7800
F800
E000
C000
C000
E180
7F80
3E00
ENDCHAR
STARTCHAR 03B6
ENCODING 950
SWIDTH 520 0
DWIDTH 13 0
BBX 11 24 1 -5
BITMAP
FFE0
7FE0
03C0
0700
0600
0C00
1C00
3800
3000
7000
6000
6000
E000
E000
C000
E000
7000
7C00
3F80
0FC0
00C0
01C0
0FC0
0F00
ENDCHAR
STARTCHAR 03B7
ENCODING 951
SWIDTH 520 0
DWIDTH 13 0
BBX 11 17 2 -4
BITMAP
C700
DF80
D980
F1C0
E1C0
E1C0
E1C0
C1C0
C1C0
C1C0
C0C0
C0C0
C0C0
00C0
00C0
00E0
00C0
ENDCHAR
STARTCHAR 03B8
ENCODING 952
SWIDTH 600 0
DWIDTH 15 0
BBX 13 19 1 0
BITMAP
0F80
1FE0
3870
7030
6038
E018
C018
C018
FFF8
FFF8
C018
C018
C018
E038
6038
7070
38F0
3FE0
0F80
ENDCHAR
STARTCHAR 03B9
ENCODING 953
SWIDTH 280 0
DWIDTH 7 0
BBX 3 13 2 0
BITMAP
60
E0
E0
E0
E0
E0
E0
E0
E0
E0
E0
E0
40
ENDCHAR
STARTCHAR 03BA
ENCODING 954
SWIDTH 560 0
DWIDTH 14 0
BBX 12 13 1 0
BITMAP
60C0
61C0
63C0
6780
6F00
7F00
7F00
7380
61C0
61C0
E0E0
6070
6060
ENDCHAR
STARTCHAR 03BB
ENCODING 955
SWIDTH 480 0
DWIDTH 12 0
BBX 11 17 1 0
BITMAP
0C00
0C00
0C00
0C00
0C00
0E00
1E00
1E00
3F00
3B00
3380
7180
71C0
61C0
E0C0
C0E0
C060
ENDCHAR
STARTCHAR 03BC
ENCODING 956
SWIDTH 520 0
DWIDTH 13 0
BBX 11 17 1 -4
BITMAP
6060
60E0
E0E0
E0E0
E0E0
E0E0
E0E0
E0E0
60E0
60E0
61E0
7FE0
7E60
6000
6000
6000
6000
ENDCHAR
STARTCHAR 03BD
ENCODING 957
SWIDTH 480 0
DWIDTH 12 0
BBX 11 13 1 0
BITMAP
C060
C0E0
E0C0
60C0
61C0
7180
3380
3B00
3B00
1F00
1E00
0E00
0C00
ENDCHAR
STARTCHAR 03BE
ENCODING 958
SWIDTH 520 0
DWIDTH 13 0
BBX 10 24 1 -5
BITMAP
0F80
3F80
3800
7000
6000
7000
3F00
0F00
1800
3000
6000
6000
E000
C000
E000
E000
7000
7E00
3F80
07C0
00C0
01C0
0FC0
0F00
ENDCHAR
STARTCHAR 03BF
ENCODING 959
SWIDTH 520 0
DWIDTH 13 0
BBX 11 13 1 0
BITMAP
0F00
3F80
71C0
60C0
E0E0
E060
C060
C060
E0E0
E0C0
71C0
3F80
1F00
ENDCHAR
STARTCHAR 03C0
ENCODING 960
SWIDTH 640 0
DWIDTH 16 0
BBX 14 13 1 0
BITMAP
7FFC
FFFC
DC70
1C70
1860
1860
1860
1860
1860
18E0
38E0
3870
3030
ENDCHAR
STARTCHAR 03C1
ENCODING 961
SWIDTH 520 0
DWIDTH 13 0
BBX 12 18 0 -5
BITMAP
0780
1FC0
38E0
3060
7070
7030
6030
6070
7070
7060
78E0
7FC0
6F80
6000
6000
6000
E000
6000
ENDCHAR
STARTCHAR 03C2
ENCODING 962
SWIDTH 520 0
DWIDTH 13 0
BBX 10 17 1 -4
BITMAP
0F80
1FC0
38C0
7000
6000
6000
E000
C000
E000
E000
7C00
3F80
0FC0
00C0
01C0
0FC0
0F00
ENDCHAR
STARTCHAR 03C3
ENCODING 963
SWIDTH 520 0
DWIDTH 13 0
BBX 13 13 1 0
BITMAP
0FF0
3FF8
71C0
60C0
E0E0
E060
C060
C060
E0E0
E0C0
71C0
3F80
1F00
ENDCHAR
STARTCHAR 03C4
ENCODING 964
SWIDTH 480 0
DWIDTH 12 0
BBX 10 13 1 0
BITMAP
FFC0
FFC0
0C00
0C00
0C00
0C00
0C00
0C00
0C00
0C00
0C00
0C00
0C00
ENDCHAR
STARTCHAR 03C5
ENCODING 965
SWIDTH 520 0
DWIDTH 13 0
BBX 11 13 1 0
BITMAP
C060
E060
E060
C060
C060
C060
C060
C0E0
E0E0
E0C0
71C0
3F80
1F00
ENDCHAR
STARTCHAR 03C6
ENCODING 966
SWIDTH 600 0
DWIDTH 15 0
BBX 13 17 1 -4
BITMAP
01C0
33E0
7370
6730
6638
6618
E618
E718
E718
6738
7770
3FE0
0FC0
0700
0700
0700
0600
ENDCHAR
STARTCHAR 03C7
ENCODING 967
SWIDTH 600 0
DWIDTH 15 0
BBX 13 17 0 -4
BITMAP
2018
7038
3830
1870
1CE0
0FC0
07C0
0780
0780
0780
0FC0
1CE0
38E0
3870
7038
E038
6018
ENDCHAR
STARTCHAR 03C8
ENCODING 968
SWIDTH 600 0
DWIDTH 15 0
BBX 13 17 1 -4
BITMAP
C618
C738
C738
C738
C738
C638
C638
C630
E630
6670
76E0
3FC0
1F80
0600
0600
0600
0600
ENDCHAR
STARTCHAR 03C9
ENCODING 969
SWIDTH 760 0
DWIDTH 19 0
BBX 17 13 1 0
BITMAP
600300
E18380
E18380
C18380
C18380
C18380
C18300
C18300
C18300
E3C700
63C600
7FFE00
1E7800
ENDCHAR
STARTCHAR 03CA
ENCODING 970
SWIDTH 280 0
DWIDTH 7 0
BBX 9 16 -1 0
BITMAP
C300
C380
0000
0C00
1C00
1C00
1C00
1C00
1C00
1C00
1C00
1C00
1C00
1C00
1C00
0800
ENDCHAR
STARTCHAR 03CB
ENCODING 971
SWIDTH 520 0
DWIDTH 13 0
BBX 11 16 1 0
BITMAP
30C0
30C0
0000
C060
E060
E060
C060
C060
C060
C060
C0E0
E0E0
E0C0
71C0
3F80
1F00
ENDCHAR
STARTCHAR 03CC
ENCODING 972
SWIDTH 520 0
DWIDTH 13 0
BBX 11 18 1 0
BITMAP
0200
0600
0600
0C00
0000
0F00
3F80
71C0
60C0
E0E0
E060
C060
C060
E0E0
E0C0
71C0
3F80
1F00
ENDCHAR
STARTCHAR 03CD
ENCODING 973
SWIDTH 520 0
DWIDTH 13 0
BBX 11 18 1 0
BITMAP
0600
0600
0E00
0C00
0000
C060
E060
E060
C060
C060
C060
C060
C0E0
E0E0
E0C0
71C0
3F80
1F00
ENDCHAR
STARTCHAR 03CE
ENCODING 974
SWIDTH 760 0
DWIDTH 19 0
BBX 17 18 1 0
BITMAP
00C000
00C000
018000
018000
000000
600300
E18380
E18380
C18380
C18380
C18380
C18300
C18300
C18300
E3C700
63C600
7FFE00
1E7800
ENDCHAR
STARTCHAR 0401
ENCODING 1025
SWIDTH 640 0
DWIDTH 16 0
BBX 13 23 2 0
BITMAP
1C70
1C70
0000
0000
FFF0
FFF8
E000
E000
E000
E000
E000
E000
C3F0
FFF0
FC00
C000
C000
C000
C000
C000
C000
FFF0
3FF0
ENDCHAR
STARTCHAR 0402
ENCODING 1026
SWIDTH 840 0
DWIDTH 21 0
BBX 19 22 1 -3
BITMAP
FFFF00
FFFF00
030000
030000
030000
033E00
03FF80
03C1C0
0380C0
0380E0
0380E0
038060
038060
038060
0380E0
0180E0
0180C0
0381C0
018180
000380
000F00
000E00
ENDCHAR
STARTCHAR 0403
ENCODING 1027
SWIDTH 600 0
DWIDTH 15 0
BBX 12 26 2 0
BITMAP
01C0
03C0
0380
0700
0E00
0400
0000
FFF0
FFF0
E000
E000
E000
E000
6000
6000
6000
6000
6000
6000
6000
6000
7000
7000
7000
7000
6000
ENDCHAR
STARTCHAR 0404
ENCODING 1028
SWIDTH 600 0
DWIDTH 15 0
BBX 14 19 1 0
BITMAP
01E8
07FC
0F1C
1C0C
3800
3800
7000
7000
63C0
FFC0
FC00
E000
E000
E000
E018
6038
70F0
3FE0
0F80
ENDCHAR
STARTCHAR 0405
ENCODING 1029
SWIDTH 680 0
DWIDTH 17 0
BBX 14 20 2 -1
BITMAP
03E0
0FF8
1C38
3800
7000
7000
7000
7800
3FE0
0FF0
0078
001C
001C
000C
000C
C01C
C038
E078
7FE0
1F80
ENDCHAR
STARTCHAR 0406
ENCODING 1030
SWIDTH 560 0
DWIDTH 14 0
BBX 12 19 1 0
BITMAP
FFE0
FFF0
0E00
0E00
0E00
0E00
0E00
0C00
0C00
0C00
0C00
0C00
0E00
0E00
0E00
0E00
0E00
FFE0
FFE0
ENDCHAR
STARTCHAR 0407
ENCODING 1031
SWIDTH 560 0
DWIDTH 14 0
BBX 12 22 1 0
BITMAP
30E0
30E0
0000
FFE0
FFF0
0E00
0E00
0E00
0E00
0E00
0C00
0C00
0C00
0C00
0C00
0E00
0E00
0E00
0E00
0E00
FFE0
FFE0
ENDCHAR
STARTCHAR 0408
ENCODING 1032
SWIDTH 680 0
DWIDTH 17 0
BBX 15 19 1 0
BITMAP
1FFC
1FFE
00E0
00E0
00E0
00E0
00E0
00E0
00E0
00E0
00C0
00C0
00C0
C0C0
E0C0
E1C0
7980
3F80
0F00
ENDCHAR
STARTCHAR 0409
ENCODING 1033
SWIDTH 1000 0
DWIDTH 25 0
BBX 24 19 0 0
BITMAP
1FFE00
1FFE00
1C0600
0C0600
0C0600
0C0600
0C0600
0C07F8
0C07FE
0C060E
0C0607
0C0603
0C0603
0C0E03
0C0E03
1C0E07
1C0E0E
F80FFC
F007F8
ENDCHAR
STARTCHAR 040A
ENCODING 1034
SWIDTH 960 0
DWIDTH 24 0
BBX 22 19 1 0
BITMAP
C01800
E01C00
E01C00
E01C00
E01C00
E01C00
E01C00
FFFFE0
FFFFF0
E01838
E0181C
E0180C
E0180C
E0180C
C0180C
C0181C
C0183C
C01FF8
C01FE0
ENDCHAR
STARTCHAR 040B
ENCODING 1035
SWIDTH 840 0
DWIDTH 21 0
BBX 18 19 1 0
BITMAP
FFFF00
FFFF00
030000
030000
030000
033E00
03FF80
03C180
0381C0
0380C0
0380C0
0380C0
0380C0
0380C0
0380C0
0180C0
0180C0
0380C0
0180C0
ENDCHAR
STARTCHAR 040C
ENCODING 1036
SWIDTH 640 0
DWIDTH 16 0
BBX 13 26 2 0
BITMAP
0180
0380
0700
0E00
0C00
0800
0000
C030
C070
C0E0
C0C0
C1C0
E180
E380
EF00
FE00
FE00
E700
E380
E1C0
E0E0
E060
E070
E030
E038
C018
ENDCHAR
STARTCHAR 040E
ENCODING 1038
SWIDTH 640 0
DWIDTH 16 0
BBX 15 25 0 0
BITMAP
1018
1818
1838
0FF0
07C0
0000
4006
E00E
700E
701C
3818
1C18
1C38
0C30
0E70
0660
0760
03C0
01C0
01C0
0380
0380
0700
7E00
7800
ENDCHAR
STARTCHAR 040F
ENCODING 1039
SWIDTH 720 0
DWIDTH 18 0
BBX 15 22 2 -3
BITMAP
C006
C00E
C00E
C00C
C00C
C00C
C00C
C00C
C00C
C00C
C00C
C00C
C00C
C00C
C00C
C00C
C00C
FFFC
FFFC
0700
0700
0300
ENDCHAR
STARTCHAR 0410
ENCODING 1040
SWIDTH 720 0
DWIDTH 18 0
BBX 14 19 2 0
BITMAP
0040
00E0
01E0
01E0
03E0
0770
0770
0E70
0E30
1C30
1CF8
7FF8
7F18
7018
7018
E01C
E01C
C00C
C00C
ENDCHAR
STARTCHAR 0411
ENCODING 1041
SWIDTH 600 0
DWIDTH 15 0
BBX 12 19 2 0
BITMAP
FFE0
FFE0
E000
E000
E000
E000
E000
FF00
FFC0
E0E0
E060
E070
E070
E070
E070
E060
E0E0
FFC0
FF00
ENDCHAR
STARTCHAR 0412
ENCODING 1042
SWIDTH 640 0
DWIDTH 16 0
BBX 13 20 2 -1
BITMAP
7E00
7F80
61C0
60E0
6060
6070
6060
6060
60E0
61C0
FF80
FFE0
E1F0
E078
E038
E038
E070
E3E0
FFC0
7E00
ENDCHAR
STARTCHAR 0413
ENCODING 1043
SWIDTH 600 0
DWIDTH 15 0
BBX 12 19 2 0
BITMAP
FFF0
FFF0
E000
E000
E000
E000
6000
6000
6000
6000
6000
6000
6000
6000
7000
7000
7000
7000
6000
ENDCHAR
STARTCHAR 0414
ENCODING 1044
SWIDTH 760 0
DWIDTH 19 0
BBX 17 23 1 -4
BITMAP
0FFF00
0FFF00
0E0300
0E0300
0E0300
0E0300
0E0300
0C0300
0C0300
0C0300
0C0300
1C0300
1C0300
1C0300
180700
380700
380700
FFFF80
FFFF80
E00180
E00180
E00180
C00180
ENDCHAR
STARTCHAR 0415
ENCODING 1045
SWIDTH 640 0
DWIDTH 16 0
BBX 13 19 2 0
BITMAP
FFF0
FFF8
E000
E000
E000
E000
E000
E000
C3F0
FFF0
FC00
C000
C000
C000
C000
C000
C000
FFF0
3FF0
ENDCHAR
STARTCHAR 0416
ENCODING 1046
SWIDTH 840 0
DWIDTH 21 0
BBX 21 19 0 0
BITMAP
702070
787070
1870E0
1C70C0
0C71C0
0E7180
067300
03FF00
03FF00
077380
0E7380
1C71C0
1C70E0
3870E0
707070
707070
607038
E07038
403018
ENDCHAR
STARTCHAR 0417
ENCODING 1047
SWIDTH 600 0
DWIDTH 15 0
BBX 13 18 1 0
BITMAP
1F80
7FE0
7070
0030
0030
0030
0070
00F0
07E0
07E0
0070
0030
0038
0038
C030
E070
FFE0
1F80
ENDCHAR
STARTCHAR 0418
ENCODING 1048
SWIDTH 760 0
DWIDTH 19 0
BBX 15 19 2 0
BITMAP
C006
C00E
C01E
C03E
C03E
C07E
C0EE
C1CE
C38E
C70E
CF0E
DE0E
DC0E
F80E
F80E
F00E
E00E
E00E
C00C
ENDCHAR
STARTCHAR 0419
ENCODING 1049
SWIDTH 760 0
DWIDTH 19 0
BBX 15 25 2 0
BITMAP
3010
3038
1870
1FE0
07C0
0000
C006
C00E
C01E
C03E
C03E
C07E
C0EE
C1CE
C38E
C70E
CF0E
DE0E
DC0E
F80E
F80E
F00E
E00E
E00E
C00C
ENDCHAR
STARTCHAR 041A
ENCODING 1050
SWIDTH 640 0
DWIDTH 16 0
BBX 13 19 2 0
BITMAP
C030
C070
C0E0
C0C0
C1C0
E180
E380
EF00
FE00
FE00
E700
E380
E1C0
E0E0
E060
E070
E030
E038
C018
ENDCHAR
STARTCHAR 041B
ENCODING 1051
SWIDTH 720 0
DWIDTH 18 0
BBX 16 19 0 0
BITMAP
1FFF
1FFF
1C03
0C03
0C03
0C03
0C03
0C03
0C03
0C03
0C03
0C03
0C03
0C03
0C03
1C03
1C03
F803
7003
ENDCHAR
STARTCHAR 041C
ENCODING 1052
SWIDTH 880 0
DWIDTH 22 0
BBX 20 20 1 -1
BITMAP
060300
0E0380
0E0780
1E0780
1F0780
1F0780
1F0F80
1B0FC0
1B0DC0
3B8CC0
3B9CC0
3398C0
7198E0
71F8E0
71F8E0
61F060
60F070
E0F070
E0E070
606030
ENDCHAR
STARTCHAR 041D
ENCODING 1053
SWIDTH 760 0
DWIDTH 19 0
BBX 16 19 2 0
BITMAP
6003
E003
E007
E007
E007
E007
E007
E007
E006
E0FE
FFFE
FF06
E006
E006
E006
C006
C006
C006
C006
ENDCHAR
STARTCHAR 041E
ENCODING 1054
SWIDTH 800 0
DWIDTH 20 0
BBX 18 19 1 0
BITMAP
01FC00
07FE00
0F0700
1C0380
380180
3801C0
7001C0
7001C0
6001C0
6001C0
E001C0
E00180
E00380
600380
700700
380E00
3C1E00
0FF800
03F000
ENDCHAR
STARTCHAR 041F
ENCODING 1055
SWIDTH 920 0
DWIDTH 23 0
BBX 20 19 1 0
BITMAP
FFFFF0
FFFFF0
1C01C0
1C01C0
1C01C0
1C01C0
1C01C0
1C01C0
0C01C0
0C01C0
0C01C0
0C01C0
1C01C0
1C01C0
1C00C0
1C00C0
1C00C0
1C00C0
0C00C0
ENDCHAR
STARTCHAR 0420
ENCODING 1056
SWIDTH 520 0
DWIDTH 13 0
BBX 11 19 1 0
BITMAP
7E00
7F80
61C0
60E0
6060
6060
6060
6060
E0E0
E3C0
FF80
FE00
E000
C000
C000
C000
C000
C000
C000
ENDCHAR
STARTCHAR 0421
ENCODING 1057
SWIDTH 600 0
DWIDTH 15 0
BBX 14 19 1 0
BITMAP
01F8
03FC
071C
0E08
1C00
3800
3800
7000
6000
E000
E000
E000
E000
E000
E018
6038
70F0
3FE0
0F80
ENDCHAR
STARTCHAR 0422
ENCODING 1058
SWIDTH 680 0
DWIDTH 17 0
BBX 17 19 1 0
BITMAP
FFFF00
7FFF80
018000
018000
018000
018000
018000
018000
01C000
01C000
01C000
01C000
01C000
01C000
01C000
01C000
01C000
01C000
00C000
ENDCHAR
STARTCHAR 0423
ENCODING 1059
SWIDTH 640 0
DWIDTH 16 0
BBX 15 19 0 0
BITMAP
4006
E00E
700E
701C
3818
1C18
1C38
0C30
0E70
0660
0760
03C0
01C0
01C0
0380
0380
0700
7E00
7800
ENDCHAR
STARTCHAR 0424
ENCODING 1060
SWIDTH 640 0
DWIDTH 16 0
BBX 15 20 1 -1
BITMAP
1FF0
1FF0
0380
07E0
1FF0
3B38
331C
630C
630C
E30E
C30C
C30C
C30C
E318
7378
3FF0
1FC0
03F0
1FF0
1E00
ENDCHAR
STARTCHAR 0425
ENCODING 1061
SWIDTH 720 0
DWIDTH 18 0
BBX 16 19 1 0
BITMAP
6003
7007
780E
380E
1C1C
0E38
0770
07F0
03E0
01C0
03E0
0770
0E70
1E38
3C1C
781C
700E
E007
C003
ENDCHAR
STARTCHAR 0426
ENCODING 1062
SWIDTH 760 0
DWIDTH 19 0
BBX 18 22 1 -3
BITMAP
600600
E00700
600600
600600
600600
600600
600600
600600
600600
600600
600600
600600
600600
600600
600600
600600
600600
7FFF80
7FFFC0
0001C0
0001C0
0001C0
ENDCHAR
STARTCHAR 0427
ENCODING 1063
SWIDTH 600 0
DWIDTH 15 0
BBX 13 19 1 0
BITMAP
6010
E038
6038
E038
E038
E038
E038
E038
E038
6038
7038
3FF8
0FF8
0038
0038
0038
0038
0038
0030
ENDCHAR
STARTCHAR 0428
ENCODING 1064
SWIDTH 920 0
DWIDTH 23 0
BBX 20 19 1 0
BITMAP
C06030
E07070
E07070
E06070
E06070
E06070
E06070
606030
606030
606030
606030
606030
606030
606030
607030
607030
E06030
FFFFF0
FFFFF0
ENDCHAR
STARTCHAR 0429
ENCODING 1065
SWIDTH 960 0
DWIDTH 24 0
BBX 22 23 1 -4
BITMAP
C06030
E07070
E07070
E06070
E06070
E06070
E06070
606030
606030
606030
606030
606030
606030
606030
606030
607030
E06030
FFFFFC
FFFFFC
00000C
00000C
00000C
00000C
ENDCHAR
STARTCHAR 042A
ENCODING 1066
SWIDTH 760 0
DWIDTH 19 0
BBX 17 19 1 0
BITMAP
FE0000
FE0000
060000
060000
060000
070000
070000
07F800
07FE00
070700
070300
070380
070380
070380
060380
060300
060F00
07FE00
07F800
ENDCHAR
STARTCHAR 042B
ENCODING 1067
SWIDTH 1080 0
DWIDTH 27 0
BBX 24 19 2 0
BITMAP
C00FFE
E00FFF
E000E0
E000C0
E000C0
E000C0
E000C0
FF00C0
FFC0C0
E0E0C0
E060C0
E070C0
E070C0
E070C0
E070C0
E060C0
E0E0C0
FFCFFE
FF0FFE
ENDCHAR
STARTCHAR 042C
ENCODING 1068
SWIDTH 600 0
DWIDTH 15 0
BBX 12 19 2 0
BITMAP
C000
E000
E000
E000
E000
E000
E000
FF00
FFC0
E0E0
E060
E070
E070
E070
E070
E060
E0E0
FFC0
FF00
ENDCHAR
STARTCHAR 042D
ENCODING 1069
SWIDTH 640 0
DWIDTH 16 0
BBX 14 19 1 0
BITMAP
3F80
7FC0
60E0
0070
0038
0038
001C
001C
001C
0FFC
0FFC
000C
001C
0018
0038
0030
E0F0
FFE0
1F80
ENDCHAR
STARTCHAR 042E
ENCODING 1070
SWIDTH 1120 0
DWIDTH 28 0
BBX 26 19 1 0
BITMAP
6001FC00
6003FF00
600F0780
601E0180
601C01C0
E03800C0
E03000C0
E07000C0
E07000C0
FFE000C0
FFE001C0
E06001C0
E0600180
E0700380
E0700300
E0380700
E01E1E00
C00FFC00
C003F000
ENDCHAR
STARTCHAR 042F
ENCODING 1071
SWIDTH 640 0
DWIDTH 16 0
BBX 14 19 0 0
BITMAP
00FC
03FC
0F0C
1E0C
380C
380C
300C
300C
300C
380C
1E0C
07FC
01FC
07CC
0F0C
3C0C
780C
F00C
600C
ENDCHAR
STARTCHAR 0430
ENCODING 1072
SWIDTH 520 0
DWIDTH 13 0
BBX 11 13 1 0
BITMAP
0F80
3FC0
78C0
60C0
E0C0
C0C0
C0C0
C0C0
C0C0
C0C0
E1E0
7FE0
3E60
ENDCHAR
STARTCHAR 0431
ENCODING 1073
SWIDTH 520 0
DWIDTH 13 0
BBX 12 19 1 0
BITMAP
0060
07F0
1FE0
3C00
3000
7000
6F00
FF80
F1C0
E0C0
E0E0
E060
C060
C0E0
E0E0
60C0
71C0
3F80
1F00
ENDCHAR
STARTCHAR 0432
ENCODING 1074
SWIDTH 520 0
DWIDTH 13 0
BBX 10 13 2 0
BITMAP
FC00
FF00
C380
C380
C380
FF00
FF00
C380
C1C0
C1C0
C380
FF00
FC00
ENDCHAR
STARTCHAR 0433
ENCODING 1075
SWIDTH 480 0
DWIDTH 12 0
BBX 9 13 2 0
BITMAP
FF80
FF80
C000
C000
C000
C000
C000
C000
C000
C000
C000
E000
C000
ENDCHAR
STARTCHAR 0434
ENCODING 1076
SWIDTH 600 0
DWIDTH 15 0
BBX 14 16 0 -3
BITMAP
0FF0
0FF0
0C38
0C38
0C30
0C30
0C30
1C30
1830
1830
3830
7FFC
FFFC
E00C
E00C
600C
ENDCHAR
STARTCHAR 0435
ENCODING 1077
SWIDTH 560 0
DWIDTH 14 0
BBX 12 13 1 0
BITMAP
0F80
3FC0
70E0
60E0
E1E0
C780
DE00
F800
E000
E030
7070
3FE0
1F80
ENDCHAR
STARTCHAR 0436
ENCODING 1078
SWIDTH 680 0
DWIDTH 17 0
BBX 15 13 1 0
BITMAP
E30C
E31C
3318
3310
1B30
1FE0
1FE0
3B70
7338
731C
E30C
C30E
C306
ENDCHAR
STARTCHAR 0437
ENCODING 1079
SWIDTH 440 0
DWIDTH 11 0
BBX 9 13 1 0
BITMAP
3C00
7F00
6380
0380
0300
1F00
1F00
0700
0380
0380
6300
FF00
3E00
ENDCHAR
STARTCHAR 0438
ENCODING 1080
SWIDTH 640 0
DWIDTH 16 0
BBX 13 13 1 0
BITMAP
C018
E038
E078
E0F8
E0F8
E198
E398
E718
EE18
FC38
F838
F038
6018
ENDCHAR
STARTCHAR 0439
ENCODING 1081
SWIDTH 640 0
DWIDTH 16 0
BBX 13 19 1 0
BITMAP
3030
3030
3870
1FE0
0F80
0000
C018
E038
E078
E0F8
E0F8
E198
E398
E718
EE18
FC38
F838
F038
6018
ENDCHAR
STARTCHAR 043A
ENCODING 1082
SWIDTH 480 0
DWIDTH 12 0
BBX 10 13 2 0
BITMAP
C180
C380
C300
C600
CE00
FC00
FC00
CE00
C700
C380
C380
C1C0
C0C0
ENDCHAR
STARTCHAR 043B
ENCODING 1083
SWIDTH 640 0
DWIDTH 16 0
BBX 14 13 0 0
BITMAP
0FFC
0FFC
0C0C
0C0C
0C0C
0C0C
0C0C
0C0C
0C0C
0C0C
0C0C
F80C
780C
ENDCHAR
STARTCHAR 043C
ENCODING 1084
SWIDTH 720 0
DWIDTH 18 0
BBX 17 13 1 0
BITMAP
181800
381C00
3C1C00
3C3C00
3C3C00
7C3E00
666600
666600
E6C600
C7C700
C3C300
C38300
C18180
ENDCHAR
STARTCHAR 043D
ENCODING 1085
SWIDTH 560 0
DWIDTH 14 0
BBX 12 13 1 0
BITMAP
C060
E070
E060
E060
E060
FFE0
FFE0
E060
E060
C060
C070
C070
C060
ENDCHAR
STARTCHAR 043E
ENCODING 1086
SWIDTH 600 0
DWIDTH 15 0
BBX 13 13 1 0
BITMAP
0FC0
1FF0
3870
7038
6038
E038
C038
C038
C030
E070
70E0
3FC0
1F80
ENDCHAR
STARTCHAR 043F
ENCODING 1087
SWIDTH 640 0
DWIDTH 16 0
BBX 11 13 3 0
BITMAP
FFE0
FFE0
C060
C060
C060
C060
C060
C060
C060
C060
C060
C060
C060
ENDCHAR
STARTCHAR 0440
ENCODING 1088
SWIDTH 520 0
DWIDTH 13 0
BBX 11 21 1 -7
BITMAP
6000
6780
FFC0
78E0
70E0
6060
6060
6060
6060
6060
60E0
61C0
7FC0
7F00
6000
6000
6000
6000
6000
6000
6000
ENDCHAR
STARTCHAR 0441
ENCODING 1089
SWIDTH 520 0
DWIDTH 13 0
BBX 11 13 1 0
BITMAP
0F80
1FC0
38C0
7000
6000
6000
E000
E000
E000
6000
70E0
3FE0
0F80
ENDCHAR
STARTCHAR 0442
ENCODING 1090
SWIDTH 480 0
DWIDTH 12 0
BBX 10 13 1 0
BITMAP
FFC0
FFC0
0C00
0C00
0C00
0C00
0C00
0C00
0C00
0C00
0C00
0C00
0C00
ENDCHAR
STARTCHAR 0443
ENCODING 1091
SWIDTH 520 0
DWIDTH 13 0
BBX 13 20 0 -7
BITMAP
C030
C038
E070
7070
70E0
38E0
38C0
1DC0
1D80
0F80
0F00
0700
0600
0E00
0E00
0C00
1C00
1800
1800
1800
ENDCHAR
STARTCHAR 0444
ENCODING 1092
SWIDTH 800 0
DWIDTH 20 0
BBX 19 21 1 -7
BITMAP
00C000
1FDF00
3FFF80
70C1C0
60C0C0
E0C0C0
E0C0C0
C0C0E0
C0C0E0
E0C0C0
E0C0C0
71E1C0
3FFF80
1EDF00
00C000
00C000
00C000
00C000
00C000
00C000
00C000
ENDCHAR
STARTCHAR 0445
ENCODING 1093
SWIDTH 600 0
DWIDTH 15 0
BBX 13 14 1 -1
BITMAP
6018
7038
3870
1CE0
0DC0
0F80
0700
0F80
1F80
39C0
70E0
E070
C070
0030
ENDCHAR
STARTCHAR 0446
ENCODING 1094
SWIDTH 600 0
DWIDTH 15 0
BBX 13 16 2 -3
BITMAP
6060
6060
6060
6060
6060
6060
6060
E060
E060
E060
E060
FFF8
FFF8
0038
0038
0030
ENDCHAR
STARTCHAR 0447
ENCODING 1095
SWIDTH 520 0
DWIDTH 13 0
BBX 11 13 1 0
BITMAP
C060
C0E0
C060
C0E0
C0E0
E0E0
61E0
7FE0
3FE0
00E0
0060
0060
0060
ENDCHAR
STARTCHAR 0448
ENCODING 1096
SWIDTH 760 0
DWIDTH 19 0
BBX 17 13 1 0
BITMAP
60C180
61C380
61C380
61C380
61C380
61C380
61C380
61C380
61C380
E1C380
E1C380
FFFF80
7FFF00
ENDCHAR
STARTCHAR 0449
ENCODING 1097
SWIDTH 800 0
DWIDTH 20 0
BBX 19 16 1 -3
BITMAP
60C180
61C380
61C380
61C380
61C380
61C380
61C380
61C380
61C380
E1C380
E1C380
FFFFC0
7FFFE0
0000E0
0000C0
0000C0
ENDCHAR
STARTCHAR 044A
ENCODING 1098
SWIDTH 640 0
DWIDTH 16 0
BBX 15 13 0 0
BITMAP
FF00
FF00
0700
0700
0700
07F0
03FC
030E
070E
070E
070E
07FC
03F0
ENDCHAR
STARTCHAR 044B
ENCODING 1099
SWIDTH 800 0
DWIDTH 20 0
BBX 17 13 2 0
BITMAP
C07F80
C07F80
C00C00
C00C00
C00C00
FE0C00
FF0C00
C38C00
C18C00
C18C00
C38C00
FF3F80
FE3F80
ENDCHAR
STARTCHAR 044C
ENCODING 1100
SWIDTH 480 0
DWIDTH 12 0
BBX 9 13 2 0
BITMAP
C000
C000
C000
C000
C000
FE00
FF00
C380
C180
C180
C380
FF00
FE00
ENDCHAR
STARTCHAR 044D
ENCODING 1101
SWIDTH 520 0
DWIDTH 13 0
BBX 11 13 1 0
BITMAP
3E00
7F80
61C0
00C0
00C0
00E0
1FE0
1FE0
00E0
00C0
01C0
FF80
7E00
ENDCHAR
STARTCHAR 044E
ENCODING 1102
SWIDTH 920 0
DWIDTH 23 0
BBX 21 13 1 0
BITMAP
600FC0
601FE0
603870
607030
E0E030
E0C038
FFC030
FFC030
C1C070
C0C060
C0F0E0
C07FC0
C01F00
ENDCHAR
STARTCHAR 044F
ENCODING 1103
SWIDTH 520 0
DWIDTH 13 0
BBX 11 13 0 0
BITMAP
03E0
0FE0
3CE0
38E0
70E0
70E0
38E0
1FE0
0FE0
1E60
7860
F060
6060
ENDCHAR
STARTCHAR 0451
ENCODING 1105
SWIDTH 560 0
DWIDTH 14 0
BBX 12 17 1 0
BITMAP
38E0
3860
0000
0000
0F80
3FC0
70E0
60E0
E1E0
C780
DE00
F800
E000
E030
7070
3FE0
1F80
ENDCHAR
STARTCHAR 0452
ENCODING 1106
SWIDTH 560 0
DWIDTH 14 0
BBX 13 25 -1 -5
BITMAP
1800
1800
1C00
7FE0
FFE0
1800
1800
18F0
19F8
1B18
1E18
1C18
1C18
1818
1818
1818
1818
1818
1818
1818
0018
0018
0038
01F0
01E0
ENDCHAR
STARTCHAR 0453
ENCODING 1107
SWIDTH 480 0
DWIDTH 12 0
BBX 9 20 2 0
BITMAP
0700
0F00
0C00
1C00
3800
1000
0000
FF80
FF80
C000
C000
C000
C000
C000
C000
C000
C000
C000
E000
C000
ENDCHAR
STARTCHAR 0454
ENCODING 1108
SWIDTH 520 0
DWIDTH 13 0
BBX 10 13 1 0
BITMAP
1F00
3FC0
70C0
6000
E000
C000
FE00
FE00
E000
E000
7800
3FC0
0FC0
ENDCHAR
STARTCHAR 0455
ENCODING 1109
SWIDTH 480 0
DWIDTH 12 0
BBX 10 13 1 0
BITMAP
01C0
1FC0
7CC0
70C0
E0C0
7C00
7F00
0780
01C0
01C0
C1C0
FF80
7E00
ENDCHAR
STARTCHAR 0456
ENCODING 1110
SWIDTH 280 0
DWIDTH 7 0
BBX 3 18 2 0
BITMAP
60
60
00
00
00
60
E0
E0
E0
E0
E0
E0
E0
E0
E0
E0
E0
40
ENDCHAR
STARTCHAR 0457
ENCODING 1111
SWIDTH 280 0
DWIDTH 7 0
BBX 9 16 -1 0
BITMAP
C300
C380
0000
0C00
1C00
1C00
1C00
1C00
1C00
1C00
1C00
1C00
1C00
1C00
1C00
0800
ENDCHAR
STARTCHAR 0458
ENCODING 1112
SWIDTH 400 0
DWIDTH 10 0
BBX 8 25 0 -7
BITMAP
0E
0E
00
00
00
06
06
06
06
06
07
07
07
07
07
07
07
07
07
03
C3
E7
E7
7E
3C
ENDCHAR
STARTCHAR 0459
ENCODING 1113
SWIDTH 880 0
DWIDTH 22 0
BBX 22 13 0 0
BITMAP
0FFC00
0FFE00
0E0E00
0E0E00
0E0E00
0E0FE0
0E0FF8
060E18
060E1C
060E1C
4E0E38
FC0FF8
7C0FE0
ENDCHAR
STARTCHAR 045A
ENCODING 1114
SWIDTH 760 0
DWIDTH 19 0
BBX 17 13 1 0
BITMAP
C0C000
E0C000
E0C000
E0C000
E0C000
FFFE00
FFFF00
E0C380
E0C180
E0C180
E0C380
E0FF00
C0FE00
ENDCHAR
STARTCHAR 045B
ENCODING 1115
SWIDTH 560 0
DWIDTH 14 0
BBX 14 20 -1 0
BITMAP
1800
1800
1C00
7FE0
FFE0
1800
1800
18F0
19F8
1B98
1F18
1E18
1C18
1C18
181C
181C
181C
181C
180C
180C
ENDCHAR
STARTCHAR 045C
ENCODING 1116
SWIDTH 480 0
DWIDTH 12 0
BBX 10 20 2 0
BITMAP
0300
0700
0E00
1C00
1800
1000
0000
C180
C380
C300
C600
CE00
FC00
FC00
CE00
C700
C380
C380
C1C0
C0C0
ENDCHAR
STARTCHAR 045E
ENCODING 1118
SWIDTH 520 0
DWIDTH 13 0
BBX 13 26 0 -7
BITMAP
6060
6060
70E0
3FC0
1F00
0000
C030
C038
E070
7070
70E0
38E0
38C0
1DC0
1D80
0F80
0F00
0700
0600
0E00
0E00
0C00
1C00
1800
1800
1800
ENDCHAR
STARTCHAR 045F
ENCODING 1119
SWIDTH 600 0
DWIDTH 15 0
BBX 11 17 2 -4
BITMAP
C060
E060
E060
E060
E060
C060
C060
C060
C060
C060
C060
FFE0
FFE0
0E00
0E00
0E00
0C00
ENDCHAR
STARTCHAR 0490
ENCODING 1168
SWIDTH 600 0
DWIDTH 15 0
BBX 12 23 2 0
BITMAP
0030
0030
0030
0030
FFF0
FFF0
E000
E000
E000
E000
6000
6000
6000
6000
6000
6000
6000
6000
7000
7000
7000
7000
6000
ENDCHAR
STARTCHAR 0491
ENCODING 1169
SWIDTH 480 0
DWIDTH 12 0
BBX 10 17 2 0
BITMAP
0180
0180
0180
0180
FFC0
FF80
C000
C000
C000
C000
C000
C000
C000
C000
C000
E000
C000
ENDCHAR
STARTCHAR 1E80
ENCODING 7808
SWIDTH 1040 0
DWIDTH 26 0
BBX 23 26 2 0
BITMAP
00C000
00E000
00E000
007000
003800
001800
000000
C01806
E03806
E0380E
E0780E
607C0C
707C0C
70FC1C
30EC18
30EC38
39CC38
19CC30
19CE70
1B8E60
1F8660
1F06E0
0F07C0
0F07C0
0E0780
0E0380
ENDCHAR
STARTCHAR 1E81
ENCODING 7809
SWIDTH 680 0
DWIDTH 17 0
BBX 15 20 1 0
BITMAP
0600
0700
0380
0180
01C0
00C0
0000
C186
C386
E386
E38E
E7CE
66CC
66CC
6CDC
6CD8
7CD8
3878
3870
3070
ENDCHAR
STARTCHAR 1E82
ENCODING 7810
SWIDTH 1040 0
DWIDTH 26 0
BBX 23 26 2 0
BITMAP
000600
000E00
001C00
003800
007000
002000
000000
C01806
E03806
E0380E
E0780E
607C0C
707C0C
70FC1C
30EC18
30EC38
39CC38
19CC30
19CE70
1B8E60
1F8660
1F06E0
0F07C0
0F07C0
0E0780
0E0380
ENDCHAR
STARTCHAR 1E83
ENCODING 7811
SWIDTH 680 0
DWIDTH 17 0
BBX 15 20 1 0
BITMAP
0060
00E0
01C0
0380
0380
0000
0000
C186
C386
E386
E38E
E7CE
66CC
66CC
6CDC
6CD8
7CD8
3878
3870
3070
ENDCHAR
STARTCHAR 1E84
ENCODING 7812
SWIDTH 1040 0
DWIDTH 26 0
BBX 23 22 2 0
BITMAP
01C700
01C700
000000
C01806
E03806
E0380E
E0780E
607C0C
707C0C
70FC1C
30EC18
30EC38
39CC38
19CC30
19CE70
1B8E60
1F8660
1F06E0
0F07C0
0F07C0
0E0780
0E0380
ENDCHAR
STARTCHAR 1E85
ENCODING 7813
SWIDTH 680 0
DWIDTH 17 0
BBX 15 16 1 0
BITMAP
1C70
1C70
0000
C186
C386
E386
E38E
E7CE
66CC
66CC
6CDC
6CD8
7CD8
3878
3870
3070
ENDCHAR
STARTCHAR 1EF2
ENCODING 7922
SWIDTH 640 0
DWIDTH 16 0
BBX 15 27 0 -1
BITMAP
0600
0700
0380
01C0
00C0
00C0
0000
0000
6006
E00E
700E
381C
3818
1C38
0C38
0E70
0670
0760
03E0
01C0
01C0
0180
0380
0300
0700
0600
0600
ENDCHAR
STARTCHAR 1EF3
ENCODING 7923
SWIDTH 520 0
DWIDTH 13 0
BBX 13 27 0 -7
BITMAP
1800
1C00
0E00
0600
0700
0300
0000
C030
C038
E070
7070
70E0
38E0
38C0
1DC0
1D80
0F80
0F00
0700
0600
0E00
0E00
0C00
1C00
1800
1800
1800
ENDCHAR
STARTCHAR 2013
ENCODING 8211
SWIDTH 440 0
DWIDTH 11 0
BBX 9 2 1 7
BITMAP
FF80
FF80
ENDCHAR
STARTCHAR 2014
ENCODING 8212
SWIDTH 880 0
DWIDTH 22 0
BBX 20 2 1 7
BITMAP
FFFFF0
FFFFF0
ENDCHAR
STARTCHAR 2015
ENCODING 8213
SWIDTH 880 0
DWIDTH 22 0
BBX 20 2 1 7
BITMAP
FFFFF0
FFFFF0
ENDCHAR
STARTCHAR 2017
ENCODING 8215
SWIDTH 640 0
DWIDTH 16 0
BBX 16 5 0 -6
BITMAP
FFFF
FFFF
0000
FFFF
FFFF
ENDCHAR
STARTCHAR 2018
ENCODING 8216
SWIDTH 200 0
DWIDTH 5 0
BBX 2 6 1 13
BITMAP
C0
C0
C0
C0
C0
40
ENDCHAR
STARTCHAR 2019
ENCODING 8217
SWIDTH 200 0
DWIDTH 5 0
BBX 2 6 1 13
BITMAP
40
C0
C0
C0
C0
80
ENDCHAR
STARTCHAR 201A
ENCODING 8218
SWIDTH 280 0
DWIDTH 7 0
BBX 4 5 1 -2
BITMAP
30
70
E0
C0
C0
ENDCHAR
STARTCHAR 201B
ENCODING 8219
SWIDTH 200 0
DWIDTH 5 0
BBX 2 6 1 13
BITMAP
40
C0
C0
C0
C0
80
ENDCHAR
STARTCHAR 201C
ENCODING 8220
SWIDTH 400 0
DWIDTH 10 0
BBX 7 6 1 13
BITMAP
CC
CC
EC
EE
66
66
ENDCHAR
STARTCHAR 201D
ENCODING 8221
SWIDTH 400 0
DWIDTH 10 0
BBX 8 6 1 13
BITMAP
33
67
66
66
E6
C6
ENDCHAR
STARTCHAR 201E
ENCODING 8222
SWIDTH 400 0
DWIDTH 10 0
BBX 8 5 1 -2
BITMAP
33
77
E6
CE
CC
ENDCHAR
STARTCHAR 2020
ENCODING 8224
SWIDTH 600 0
DWIDTH 15 0
BBX 13 24 1 -3
BITMAP
0600
0700
0700
0600
0600
0600
0600
FFF8
FFF8
0600
0600
0600
0600
0600
0600
0600
0600
0600
0600
0600
0600
0600
0600
0600
ENDCHAR
STARTCHAR 2021
ENCODING 8225
SWIDTH 600 0
DWIDTH 15 0
BBX 13 24 1 -3
BITMAP
0600
0700
0700
0700
0600
FFF8
FFF8
0600
0600
0600
0600
0600
0600
7FF0
7FF0
0600
0600
0600
0600
0600
0600
0600
0600
0600
ENDCHAR
STARTCHAR 2022
ENCODING 8226
SWIDTH 400 0
DWIDTH 10 0
BBX 5 5 2 7
BITMAP
70
F8
F8
F8
70
ENDCHAR
STARTCHAR 2026
ENCODING 8230
SWIDTH 680 0
DWIDTH 17 0
BBX 13 2 2 -1
BITMAP
C718
E718
ENDCHAR
STARTCHAR 2030
ENCODING 8240
SWIDTH 1240 0
DWIDTH 31 0
BBX 27 20 2 0
BITMAP
00180000
38180000
7E380000
C6300000
C6700000
C6600000
FE600000
7CC00000
00C00000
01800000
01800000
03800000
031E0780
073F8FC0
063198E0
0E30D860
0C71D860
1C3198E0
183F9FC0
181E0780
ENDCHAR
STARTCHAR 2032
ENCODING 8242
SWIDTH 200 0
DWIDTH 5 0
BBX 2 6 1 13
BITMAP
40
C0
C0
C0
C0
80
ENDCHAR
STARTCHAR 2033
ENCODING 8243
SWIDTH 320 0
DWIDTH 8 0
BBX 7 6 1 13
BITMAP
44
CE
CC
CC
CC
8C
ENDCHAR
STARTCHAR 2039
ENCODING 8249
SWIDTH 400 0
DWIDTH 10 0
BBX 8 11 1 2
BITMAP
02
07
0E
1C
38
F0
78
3C
1E
0E
06
ENDCHAR
STARTCHAR 203A
ENCODING 8250
SWIDTH 400 0
DWIDTH 10 0
BBX 8 11 1 2
BITMAP
40
E0
70
38
1C
0F
1E
3C
78
70
60
ENDCHAR
STARTCHAR 203C
ENCODING 8252
SWIDTH 440 0
DWIDTH 11 0
BBX 7 21 2 -1
BITMAP
C6
C6
C6
C6
C6
C6
C6
C6
C6
C6
C6
C6
C6
C6
C6
C6
00
00
86
C6
C6
ENDCHAR
STARTCHAR 203E
ENCODING 8254
SWIDTH 600 0
DWIDTH 15 0
BBX 18 2 -2 18
BITMAP
FFFFC0
FFFFC0
ENDCHAR
STARTCHAR 2044
ENCODING 8260
SWIDTH 800 0
DWIDTH 20 0
BBX 20 21 0 0
BITMAP
000020
000070
0000E0
0001C0
000380
000780
000700
000E00
001C00
003800
007000
00F000
01E000
03C000
078000
0F0000
1E0000
3C0000
780000
700000
E00000
ENDCHAR
STARTCHAR 207F
ENCODING 8319
SWIDTH 520 0
DWIDTH 13 0
BBX 9 9 2 10
BITMAP
5E00
7F00
7300
6300
E300
C300
C380
C380
4180
ENDCHAR
STARTCHAR 20A3
ENCODING 8355
SWIDTH 1000 0
DWIDTH 25 0
BBX 22 19 2 0
BITMAP
FFE000
FFF800
E03000
E00000
E00000
E00000
E00478
EFEFFC
FFEFCC
F00F0C
E00E0C
E00E00
E00E00
E00E00
E00E00
E00E00
E00E00
E00E00
C00600
ENDCHAR
STARTCHAR 20A4
ENCODING 8356
SWIDTH 800 0
DWIDTH 20 0
BBX 17 20 1 -1
BITMAP
01F000
07FC00
0E0E00
1C0600
180600
180000
180000
FFC000
FFC000
180000
1C0000
7FE000
7FE000
0C0000
0C0000
0C0180
1C0380
3F8300
3FFF00
307C00
ENDCHAR
STARTCHAR 20A7
ENCODING 8359
SWIDTH 1200 0
DWIDTH 30 0
BBX 28 19 1 0
BITMAP
7E000000
7F800000
61C60000
60E60000
60660000
606600E0
607FE7E0
607FDFE0
E0C63E70
E3C63860
FF063000
FE063F00
E0061FC0
C00603E0
C00700E0
C0070060
C00760E0
C0077FC0
C0061F80
ENDCHAR
STARTCHAR 20AC
ENCODING 8364
SWIDTH 600 0
DWIDTH 15 0
BBX 15 19 0 0
BITMAP
007E
01FE
0386
0706
0700
0E00
0E00
FFF8
FFF8
1800
3800
FFC0
FFC0
3800
3800
180C
1C3C
0FF8
07E0
ENDCHAR
STARTCHAR 2105
ENCODING 8453
SWIDTH 840 0
DWIDTH 21 0
BBX 19 19 1 0
BITMAP
3C0C00
7C0C00
E01C00
C01800
C03800
E03000
7E7000
3E6000
00E000
00C000
01C000
018F80
039FC0
0318C0
071860
0638E0
0E18C0
0C1FC0
0C0F00
ENDCHAR
STARTCHAR 2113
ENCODING 8467
SWIDTH 480 0
DWIDTH 12 0
BBX 10 19 0 0
BITMAP
0700
0F80
0DC0
1CC0
1CC0
18C0
19C0
1980
1B00
1E00
FC00
F800
1800
1800
1800
1C00
1C00
0FC0
07C0
ENDCHAR
STARTCHAR 2116
ENCODING 8470
SWIDTH 1160 0
DWIDTH 29 0
BBX 26 19 1 0
BITMAP
600C0000
F00E0000
700E0000
78060000
68060000
6C070000
64071F00
66073F80
630771C0
610771C0
618760C0
608770C0
60C771C0
60673F80
60671F00
60370000
601F0000
600EFFC0
6006FFC0
ENDCHAR
STARTCHAR 2122
ENCODING 8482
SWIDTH 880 0
DWIDTH 22 0
BBX 20 9 1 11
BITMAP
FFD8C0
FFD8C0
0C3DC0
0C3DE0
0C3DE0
0C2F60
0C6730
0CE630
0CC610
ENDCHAR
STARTCHAR 2126
ENCODING 8486
SWIDTH 960 0
DWIDTH 24 0
BBX 22 21 1 -2
BITMAP
001F80
00FFE0
01E070
078030
0F0030
0E0030
1C0038
180038
180030
180030
180070
180070
1C0060
1C00E0
0C01C0
0E0380
060780
0707FC
7F03FC
FF0000
F80000
ENDCHAR
STARTCHAR 212E
ENCODING 8494
SWIDTH 560 0
DWIDTH 14 0
BBX 12 13 1 0
BITMAP
1F00
30C0
4020
C020
C030
C030
FFF0
C000
C000
C000
4020
20C0
1F80
ENDCHAR
STARTCHAR 215B
ENCODING 8539
SWIDTH 640 0
DWIDTH 16 0
BBX 13 26 2 -5
BITMAP
0600
0E00
1E00
0600
0600
0600
0600
0600
1FC0
1FC0
0000
0000
FFF0
FFF8
0000
0F00
1F80
1980
1980
1F80
1F80
1980
10C0
19C0
1F80
0F00
ENDCHAR
STARTCHAR 215C
ENCODING 8540
SWIDTH 640 0
DWIDTH 16 0
BBX 13 26 2 -5
BITMAP
0E00
0F80
0180
0180
0780
0780
0180
0080
0180
1F80
1F00
0000
FFF0
FFF8
0000
0F00
1F80
1980
1980
1F80
1F80
1980
10C0
19C0
1F80
0F00
ENDCHAR
STARTCHAR 215D
ENCODING 8541
SWIDTH 640 0
DWIDTH 16 0
BBX 13 26 2 -5
BITMAP
1FC0
1F80
1800
1700
1F80
18C0
10C0
00C0
11C0
1F80
0F00
0000
FFF0
FFF8
0000
0F00
1F80
1980
1980
1F80
1F80
1980
10C0
19C0
1F80
0F00
ENDCHAR
STARTCHAR 215E
ENCODING 8542
SWIDTH 640 0
DWIDTH 16 0
BBX 13 27 2 -5
BITMAP
1FE0
1FE0
00C0
0180
0180
0300
0300
0600
0600
0600
0400
0000
0000
FFF0
FFF8
0000
0F00
1F80
1980
1980
1F80
1F80
1980
10C0
19C0
1F80
0F00
ENDCHAR
STARTCHAR 2202
ENCODING 8706
SWIDTH 520 0
DWIDTH 13 0
BBX 10 19 2 -1
BITMAP
3000
3800
1C00
0E00
0600
0700
0300
0380
0F80
3FC0
70C0
60C0
E0C0
C0C0
C0C0
E1C0
7380
3F00
1E00
ENDCHAR
STARTCHAR 2206
ENCODING 8710
SWIDTH 800 0
DWIDTH 20 0
BBX 18 20 1 0
BITMAP
004000
00E000
01E000
01F000
01B000
03B800
039800
071C00
070C00
060E00
0E0600
0E0700
1C0700
1C0380
380380
380180
7001C0
7001C0
FFFCC0
FFFFC0
ENDCHAR
STARTCHAR 220F
ENCODING 8719
SWIDTH 920 0
DWIDTH 23 0
BBX 20 22 1 -3
BITMAP
FFFFF0
FFFFF0
1C01C0
1C01C0
1C01C0
1C01C0
1C01C0
1C01C0
0C01C0
0C01C0
0C01C0
0C01C0
0C01C0
0C01C0
0C01C0
1C01C0
1C01C0
1C00C0
1C00C0
1C00C0
1C00C0
0C00C0
ENDCHAR
STARTCHAR 2211
ENCODING 8721
SWIDTH 760 0
DWIDTH 19 0
BBX 17 20 1 -4
BITMAP
FFFE00
FFFE00
700000
380000
1C0000
0E0000
070000
038000
01C000
01E000
03C000
078000
0F0000
0E0000
1C0000
3C0000
780000
700000
FFFF80
FFFF80
ENDCHAR
STARTCHAR 2212
ENCODING 8722
SWIDTH 480 0
DWIDTH 12 0
BBX 10 2 1 7
BITMAP
FFC0
FFC0
ENDCHAR
STARTCHAR 2215
ENCODING 8725
SWIDTH 800 0
DWIDTH 20 0
BBX 20 21 0 0
BITMAP
000020
000070
0000E0
0001C0
000380
000780
000700
000E00
001C00
003800
007000
00F000
01E000
03C000
078000
0F0000
1E0000
3C0000
780000
700000
E00000
ENDCHAR
STARTCHAR 2219
ENCODING 8729
SWIDTH 240 0
DWIDTH 6 0
BBX 3 3 2 8
BITMAP
C0
E0
C0
ENDCHAR
STARTCHAR 221A
ENCODING 8730
SWIDTH 600 0
DWIDTH 15 0
BBX 14 21 1 -1
BITMAP
01FC
01FC
0180
0380
0380
0380
0300
0300
0300
0700
0700
0600
0600
0E00
CC00
CC00
FC00
F800
7800
7800
3000
ENDCHAR
STARTCHAR 221E
ENCODING 8734
SWIDTH 840 0
DWIDTH 21 0
BBX 17 8 2 4
BITMAP
3C1E00
7E7F00
C3E180
C1C180
C1C180
C37380
7F3F00
3C1E00
ENDCHAR
STARTCHAR 222B
ENCODING 8747
SWIDTH 720 0
DWIDTH 18 0
BBX 15 26 1 -5
BITMAP
0038
007E
00EE
00C6
01C0
01C0
0180
0180
0180
0180
0180
0180
01C0
01C0
01C0
0180
0180
0180
0180
0180
C180
C380
E380
6300
7F00
1E00
ENDCHAR
STARTCHAR 2248
ENCODING 8776
SWIDTH 600 0
DWIDTH 15 0
BBX 13 11 2 3
BITMAP
1C18
3E38
7730
63F0
00E0
0000
3820
7C70
EE60
C7E0
01C0
ENDCHAR
STARTCHAR 2260
ENCODING 8800
SWIDTH 520 0
DWIDTH 13 0
BBX 10 12 1 1
BITMAP
0180
0380
FFC0
FFC0
0600
0E00
0C00
1C00
7F80
FF80
3000
3000
ENDCHAR
STARTCHAR 2264
ENCODING 8804
SWIDTH 400 0
DWIDTH 10 0
BBX 9 15 0 -2
BITMAP
0200
0700
0E00
1C00
7800
F000
7800
3C00
1C00
0E00
0600
0000
0000
7F80
7F80
ENDCHAR
STARTCHAR 2265
ENCODING 8805
SWIDTH 400 0
DWIDTH 10 0
BBX 8 15 1 -2
BITMAP
C0
60
30
18
06
0F
1F
3C
78
F0
C0
00
00
FF
FF
ENDCHAR
STARTCHAR 25A1
ENCODING 9633
SWIDTH 720 0
DWIDTH 18 0
BBX 10 10 4 0
BITMAP
FFC0
8040
8040
8040
8040
8040
8040
8040
8040
FFC0
ENDCHAR
STARTCHAR 25AA
ENCODING 9642
SWIDTH 640 0
DWIDTH 16 0
BBX 6 7 5 2
BITMAP
FC
FC
FC
FC
FC
FC
FC
ENDCHAR
STARTCHAR 25AB
ENCODING 9643
SWIDTH 640 0
DWIDTH 16 0
BBX 7 8 4 1
BITMAP
FE
82
82
82
82
82
82
FE
ENDCHAR
STARTCHAR 25CA
ENCODING 9674
SWIDTH 720 0
DWIDTH 18 0
BBX 16 21 1 -1
BITMAP
0100
0380
06C0
0EE0
0C70
1830
3838
301C
700E
6007
E007
E007
F00E
781C
1818
1C38
0E30
0660
0360
01C0
0080
ENDCHAR
STARTCHAR 25CF
ENCODING 9679
SWIDTH 640 0
DWIDTH 16 0
BBX 6 7 5 1
BITMAP
78
FC
FC
FC
FC
FC
78
ENDCHAR
STARTCHAR 25E6
ENCODING 9702
SWIDTH 640 0
DWIDTH 16 0
BBX 7 8 4 1
BITMAP
3C
42
82
82
82
82
42
3C
ENDCHAR
STARTCHAR F001
ENCODING 61441
SWIDTH 640 0
DWIDTH 16 0
BBX 14 22 1 -2
BITMAP
03C0
07C0
0E1C
0C1C
1C00
1C00
1C00
FFF8
FFF8
1818
1818
1818
1818
1818
1818
1818
1818
1818
1818
1818
1800
1800
ENDCHAR
STARTCHAR F002
ENCODING 61442
SWIDTH 640 0
DWIDTH 16 0
BBX 14 22 1 -2
BITMAP
01FC
07FC
0F0C
0C0C
0C0C
1C0C
1C0C
1C0C
1C0C
FFCC
FFCC
180C
181C
181C
181C
181C
181C
181C
181C
1818
1800
1800
ENDCHAR
STARTCHAR F003
ENCODING 61443
SWIDTH 400 0
DWIDTH 10 0
BBX 4 6 3 15
BITMAP
60
70
E0
C0
60
60
ENDCHAR
STARTCHAR F004
ENCODING 61444
SWIDTH 400 0
DWIDTH 10 0
BBX 3 6 4 15
BITMAP
60
E0
60
60
E0
C0
ENDCHAR
STARTCHAR F005
ENCODING 61445
SWIDTH 400 0
DWIDTH 10 0
BBX 3 6 4 15
BITMAP
60
60
E0
E0
E0
60
ENDCHAR
STARTCHAR FB01
ENCODING 64257
SWIDTH 640 0
DWIDTH 16 0
BBX 14 22 1 -2
BITMAP
03C0
07C0
0E1C
0C1C
1C00
1C00
1C00
FFF8
FFF8
1818
1818
1818
1818
1818
1818
1818
1818
1818
1818
1818
1800
1800
ENDCHAR
STARTCHAR FB02
ENCODING 64258
SWIDTH 640 0
DWIDTH 16 0
BBX 14 22 1 -2
BITMAP
01FC
07FC
0F0C
0C0C
0C0C
1C0C
1C0C
1C0C
1C0C
FFCC
FFCC
180C
181C
181C
181C
181C
181C
181C
181C
1818
1800
1800
ENDCHAR
ENDFONT
